<svg xmlns="http://www.w3.org/2000/svg" viewBox="0 0 900 424" font-family="'Red Hat Text', system-ui, sans-serif" role="img">
<defs><marker id="a" viewBox="0 0 10 10" refX="8.5" refY="5" markerWidth="9" markerHeight="9" orient="auto-start-reverse"><path d="M0,0 L10,5 L0,10 z" fill="#555"/></marker><marker id="am" viewBox="0 0 10 10" refX="8.5" refY="5" markerWidth="9" markerHeight="9" orient="auto-start-reverse"><path d="M0,0 L10,5 L0,10 z" fill="#b8650a"/></marker></defs>
<rect x="14" y="34" width="150" height="258" rx="12" fill="#fafafa" stroke="#ddd"/>
<text x="26" y="54" font-size="12" font-weight="700" fill="#1d1d1d">1 · Foundations</text>
<rect x="184" y="34" width="300" height="258" rx="12" fill="#fafafa" stroke="#ddd"/>
<text x="196" y="54" font-size="12" font-weight="700" fill="#1d1d1d">2 · Core systems</text>
<rect x="504" y="34" width="188" height="258" rx="12" fill="#fafafa" stroke="#ddd"/>
<text x="516" y="54" font-size="12" font-weight="700" fill="#1d1d1d">3 · Operating context</text>
<rect x="712" y="34" width="174" height="258" rx="12" fill="#fafafa" stroke="#ddd"/>
<text x="724" y="54" font-size="12" font-weight="700" fill="#1d1d1d">4 · Mastery</text>
<rect x="26" y="64" width="126" height="46" rx="9" fill="#ffffff" stroke="#111111" stroke-width="2"/>
<text x="89.0" y="85.0" font-size="13.5" font-weight="700" fill="#111111" text-anchor="middle">Setting Up</text>
<text x="89.0" y="102.0" font-size="11.5" fill="#555555" text-anchor="middle">ch 00–03</text>
<rect x="26" y="124" width="126" height="46" rx="9" fill="#ffffff" stroke="#111111" stroke-width="2"/>
<text x="89.0" y="145.0" font-size="13.5" font-weight="700" fill="#111111" text-anchor="middle">Foundations</text>
<text x="89.0" y="162.0" font-size="11.5" fill="#555555" text-anchor="middle">ch 04–06</text>
<rect x="194" y="64" width="138" height="46" rx="9" fill="#ffffff" stroke="#111111" stroke-width="2"/>
<text x="263.0" y="85.0" font-size="13.5" font-weight="700" fill="#111111" text-anchor="middle">Files and I/O</text>
<text x="263.0" y="102.0" font-size="11.5" fill="#555555" text-anchor="middle">ch 07–10</text>
<rect x="340" y="64" width="136" height="46" rx="9" fill="#ffffff" stroke="#111111" stroke-width="2"/>
<text x="408.0" y="85.0" font-size="13.5" font-weight="700" fill="#111111" text-anchor="middle">Processes, Signals,</text>
<text x="408.0" y="102.0" font-size="11.5" fill="#555555" text-anchor="middle">Privilege · ch 11–14</text>
<rect x="194" y="120" width="138" height="46" rx="9" fill="#ffffff" stroke="#111111" stroke-width="2"/>
<text x="263.0" y="141.0" font-size="13.5" font-weight="700" fill="#111111" text-anchor="middle">Memory</text>
<text x="263.0" y="158.0" font-size="11.5" fill="#555555" text-anchor="middle">ch 15–17</text>
<rect x="340" y="120" width="136" height="46" rx="9" fill="#ffffff" stroke="#111111" stroke-width="2"/>
<text x="408.0" y="141.0" font-size="13.5" font-weight="700" fill="#111111" text-anchor="middle">IPC</text>
<text x="408.0" y="158.0" font-size="11.5" fill="#555555" text-anchor="middle">ch 18–20</text>
<rect x="194" y="176" width="138" height="46" rx="9" fill="#ffffff" stroke="#111111" stroke-width="2"/>
<text x="263.0" y="197.0" font-size="13.5" font-weight="700" fill="#111111" text-anchor="middle">Networking</text>
<text x="263.0" y="214.0" font-size="11.5" fill="#555555" text-anchor="middle">ch 21–24</text>
<rect x="340" y="176" width="136" height="46" rx="9" fill="#ffffff" stroke="#111111" stroke-width="2"/>
<text x="408.0" y="197.0" font-size="13.5" font-weight="700" fill="#111111" text-anchor="middle">Concurrency in Depth</text>
<text x="408.0" y="214.0" font-size="11.5" fill="#555555" text-anchor="middle">ch 25–27</text>
<rect x="516" y="64" width="164" height="46" rx="9" fill="#ffffff" stroke="#111111" stroke-width="2"/>
<text x="598.0" y="85.0" font-size="13.5" font-weight="700" fill="#111111" text-anchor="middle">Debugging</text>
<text x="598.0" y="102.0" font-size="11.5" fill="#555555" text-anchor="middle">ch 28–31</text>
<rect x="516" y="120" width="164" height="46" rx="9" fill="#ffffff" stroke="#111111" stroke-width="2"/>
<text x="598.0" y="141.0" font-size="13.5" font-weight="700" fill="#111111" text-anchor="middle">Containers and Virt.</text>
<text x="598.0" y="158.0" font-size="11.5" fill="#555555" text-anchor="middle">ch 32–35</text>
<rect x="516" y="176" width="164" height="46" rx="9" fill="#ffffff" stroke="#111111" stroke-width="2"/>
<text x="598.0" y="197.0" font-size="13.5" font-weight="700" fill="#111111" text-anchor="middle">Observability</text>
<text x="598.0" y="214.0" font-size="11.5" fill="#555555" text-anchor="middle">ch 36–38</text>
<rect x="722" y="64" width="154" height="46" rx="9" fill="#ffffff" stroke="#111111" stroke-width="2"/>
<text x="799.0" y="85.0" font-size="13.5" font-weight="700" fill="#111111" text-anchor="middle">Performance and</text>
<text x="799.0" y="102.0" font-size="11.5" fill="#555555" text-anchor="middle">Low Latency · ch 39–41</text>
<rect x="722" y="120" width="154" height="46" rx="9" fill="#ffffff" stroke="#111111" stroke-width="2"/>
<text x="799.0" y="141.0" font-size="13.5" font-weight="700" fill="#111111" text-anchor="middle">Deep Dives</text>
<text x="799.0" y="158.0" font-size="11.5" fill="#555555" text-anchor="middle">ch 42–44</text>
<rect x="722" y="176" width="154" height="46" rx="9" fill="#ffffff" stroke="#999999" stroke-width="1.5"/>
<text x="799.0" y="197.0" font-size="13.5" font-weight="700" fill="#111111" text-anchor="middle">Appendices: Tooling</text>
<text x="799.0" y="214.0" font-size="11.5" fill="#555555" text-anchor="middle">ch 45–48</text>
<rect x="30" y="336" width="126" height="54" rx="9" fill="#fff8ef" stroke="#e8870c" stroke-width="2"/>
<text x="93.0" y="361.0" font-size="13.5" font-weight="700" fill="#111111" text-anchor="middle">fwatch</text>
<text x="93.0" y="378.0" font-size="11.5" fill="#555555" text-anchor="middle">file watcher</text>
<rect x="172" y="336" width="126" height="54" rx="9" fill="#fff8ef" stroke="#e8870c" stroke-width="2"/>
<text x="235.0" y="361.0" font-size="13.5" font-weight="700" fill="#111111" text-anchor="middle">shmkv</text>
<text x="235.0" y="378.0" font-size="11.5" fill="#555555" text-anchor="middle">shared-memory KV</text>
<rect x="314" y="336" width="126" height="54" rx="9" fill="#fff8ef" stroke="#e8870c" stroke-width="2"/>
<text x="377.0" y="361.0" font-size="13.5" font-weight="700" fill="#111111" text-anchor="middle">chatterd</text>
<text x="377.0" y="378.0" font-size="11.5" fill="#555555" text-anchor="middle">p2p chat daemon</text>
<rect x="456" y="336" width="126" height="54" rx="9" fill="#fff8ef" stroke="#e8870c" stroke-width="2"/>
<text x="519.0" y="361.0" font-size="13.5" font-weight="700" fill="#111111" text-anchor="middle">pmon</text>
<text x="519.0" y="378.0" font-size="11.5" fill="#555555" text-anchor="middle">process supervisor</text>
<rect x="598" y="336" width="126" height="54" rx="9" fill="#fff8ef" stroke="#e8870c" stroke-width="2"/>
<text x="661.0" y="361.0" font-size="13.5" font-weight="700" fill="#111111" text-anchor="middle">bugfarm</text>
<text x="661.0" y="378.0" font-size="11.5" fill="#555555" text-anchor="middle">seeded-bug corpus</text>
<rect x="740" y="336" width="126" height="54" rx="9" fill="#fff8ef" stroke="#e8870c" stroke-width="2"/>
<text x="803.0" y="361.0" font-size="13.5" font-weight="700" fill="#111111" text-anchor="middle">sysagent</text>
<text x="803.0" y="378.0" font-size="11.5" fill="#555555" text-anchor="middle">metrics agent</text>
<path d="M164,160 L184,160" fill="none" stroke="#555" stroke-width="2" marker-end="url(#a)"/>
<path d="M484,160 L504,160" fill="none" stroke="#555" stroke-width="2" marker-end="url(#a)"/>
<path d="M692,160 L712,160" fill="none" stroke="#555" stroke-width="2" marker-end="url(#a)"/>
<path d="M93,336 L240,292" fill="none" stroke="#b8650a" stroke-width="2" marker-end="url(#am)"/>
<path d="M235,336 L270,292" fill="none" stroke="#b8650a" stroke-width="2" marker-end="url(#am)"/>
<path d="M377,336 L320,292" fill="none" stroke="#b8650a" stroke-width="2" marker-end="url(#am)"/>
<path d="M519,336 L388,292" fill="none" stroke="#b8650a" stroke-width="2" marker-end="url(#am)"/>
<path d="M661,336 L600,292" fill="none" stroke="#b8650a" stroke-width="2" marker-end="url(#am)"/>
<path d="M803,336 L650,292" fill="none" stroke="#b8650a" stroke-width="2" marker-end="url(#am)"/>
<text x="450" y="414" font-size="12" fill="#b8650a" text-anchor="middle">The six artifacts grow across their part arcs and converge in the Chapter 41 capstone fleet.</text>
</svg>