<svg xmlns="http://www.w3.org/2000/svg" viewBox="0 0 884 440" font-family="'Red Hat Text', system-ui, sans-serif" role="img">
<defs><marker id="a" viewBox="0 0 10 10" refX="8.5" refY="5" markerWidth="9" markerHeight="9" orient="auto-start-reverse"><path d="M0,0 L10,5 L0,10 z" fill="#555"/></marker><marker id="am" viewBox="0 0 10 10" refX="8.5" refY="5" markerWidth="9" markerHeight="9" orient="auto-start-reverse"><path d="M0,0 L10,5 L0,10 z" fill="#b8650a"/></marker></defs>
<rect x="28" y="44" width="260" height="256" rx="12" fill="#fafafa" stroke="#ddd"/>
<text x="40" y="64" font-size="12" font-weight="700" fill="#1d1d1d">C++</text>
<rect x="312" y="44" width="260" height="256" rx="12" fill="#fafafa" stroke="#ddd"/>
<text x="324" y="64" font-size="12" font-weight="700" fill="#1d1d1d">Go</text>
<rect x="596" y="44" width="260" height="256" rx="12" fill="#fafafa" stroke="#ddd"/>
<text x="608" y="64" font-size="12" font-weight="700" fill="#1d1d1d">Rust</text>
<rect x="52" y="74" width="212" height="46" rx="9" fill="#eef4fb" stroke="#2f6db5" stroke-width="2"/>
<text x="158.0" y="95.0" font-size="13.5" font-weight="700" fill="#111111" text-anchor="middle">GCC 16 / clang</text>
<text x="158.0" y="112.0" font-size="11.5" fill="#555555" text-anchor="middle">g++ -std=c++23</text>
<rect x="52" y="138" width="212" height="46" rx="9" fill="#eef4fb" stroke="#2f6db5" stroke-width="2"/>
<text x="158.0" y="159.0" font-size="13.5" font-weight="700" fill="#111111" text-anchor="middle">CMake 4.3 + Ninja</text>
<text x="158.0" y="176.0" font-size="11.5" fill="#555555" text-anchor="middle">presets: release, asan, clang</text>
<rect x="52" y="202" width="212" height="46" rx="9" fill="#eef4fb" stroke="#2f6db5" stroke-width="2"/>
<text x="158.0" y="223.0" font-size="13.5" font-weight="700" fill="#111111" text-anchor="middle">gdb / valgrind</text>
<text x="158.0" y="240.0" font-size="11.5" fill="#555555" text-anchor="middle">sanitizer presets</text>
<rect x="336" y="74" width="212" height="46" rx="9" fill="#eef4fb" stroke="#2f6db5" stroke-width="2"/>
<text x="442.0" y="95.0" font-size="13.5" font-weight="700" fill="#111111" text-anchor="middle">go1.26.5</text>
<text x="442.0" y="112.0" font-size="11.5" fill="#555555" text-anchor="middle">toolchain directive in go.mod</text>
<rect x="336" y="138" width="212" height="46" rx="9" fill="#eef4fb" stroke="#2f6db5" stroke-width="2"/>
<text x="442.0" y="159.0" font-size="13.5" font-weight="700" fill="#111111" text-anchor="middle">go build</text>
<text x="442.0" y="176.0" font-size="11.5" fill="#555555" text-anchor="middle">golang.org/x/sys v0.47.0</text>
<rect x="336" y="202" width="212" height="46" rx="9" fill="#eef4fb" stroke="#2f6db5" stroke-width="2"/>
<text x="442.0" y="223.0" font-size="13.5" font-weight="700" fill="#111111" text-anchor="middle">dlv / staticcheck</text>
<text x="442.0" y="240.0" font-size="11.5" fill="#555555" text-anchor="middle">golangci-lint</text>
<rect x="620" y="74" width="212" height="46" rx="9" fill="#eef4fb" stroke="#2f6db5" stroke-width="2"/>
<text x="726.0" y="95.0" font-size="13.5" font-weight="700" fill="#111111" text-anchor="middle">rustc 1.97.1</text>
<text x="726.0" y="112.0" font-size="11.5" fill="#555555" text-anchor="middle">rustup + rust-toolchain.toml</text>
<rect x="620" y="138" width="212" height="46" rx="9" fill="#eef4fb" stroke="#2f6db5" stroke-width="2"/>
<text x="726.0" y="159.0" font-size="13.5" font-weight="700" fill="#111111" text-anchor="middle">cargo</text>
<text x="726.0" y="176.0" font-size="11.5" fill="#555555" text-anchor="middle">rustix 1.1.4</text>
<rect x="620" y="202" width="212" height="46" rx="9" fill="#eef4fb" stroke="#2f6db5" stroke-width="2"/>
<text x="726.0" y="223.0" font-size="13.5" font-weight="700" fill="#111111" text-anchor="middle">clippy / rustfmt</text>
<text x="726.0" y="240.0" font-size="11.5" fill="#555555" text-anchor="middle">rust-src component</text>
<rect x="330" y="356" width="224" height="62" rx="9" fill="#fff8ef" stroke="#e8870c" stroke-width="2"/>
<text x="442.0" y="377.5" font-size="13.5" font-weight="700" fill="#111111" text-anchor="middle">demo.sh contract</text>
<text x="442.0" y="394.5" font-size="11.5" fill="#555555" text-anchor="middle">build | run [args] | TARGET=vm</text>
<text x="442.0" y="409.5" font-size="11.5" fill="#555555" text-anchor="middle">same interface, all three languages</text>
<path d="M158,120 L158,138" fill="none" stroke="#555" stroke-width="2" marker-end="url(#a)"/>
<path d="M158,184 L158,202" fill="none" stroke="#555" stroke-width="2" marker-end="url(#a)"/>
<path d="M442,120 L442,138" fill="none" stroke="#555" stroke-width="2" marker-end="url(#a)"/>
<path d="M442,184 L442,202" fill="none" stroke="#555" stroke-width="2" marker-end="url(#a)"/>
<path d="M726,120 L726,138" fill="none" stroke="#555" stroke-width="2" marker-end="url(#a)"/>
<path d="M726,184 L726,202" fill="none" stroke="#555" stroke-width="2" marker-end="url(#a)"/>
<path d="M158,300 L352,358" fill="none" stroke="#555" stroke-width="2" marker-end="url(#a)"/>
<text x="209.0" y="327.0" font-size="11" fill="#ffffff" stroke="#ffffff" stroke-width="3" paint-order="stroke" text-anchor="middle">cpp/demo.sh</text>
<text x="209.0" y="327.0" font-size="11" fill="#555" text-anchor="middle">cpp/demo.sh</text>
<path d="M442,300 L442,354" fill="none" stroke="#555" stroke-width="2" marker-end="url(#a)"/>
<text x="488.0" y="327.0" font-size="11" fill="#ffffff" stroke="#ffffff" stroke-width="3" paint-order="stroke" text-anchor="middle">go/demo.sh</text>
<text x="488.0" y="327.0" font-size="11" fill="#555" text-anchor="middle">go/demo.sh</text>
<path d="M726,300 L532,358" fill="none" stroke="#555" stroke-width="2" marker-end="url(#a)"/>
<text x="681.0" y="327.0" font-size="11" fill="#ffffff" stroke="#ffffff" stroke-width="3" paint-order="stroke" text-anchor="middle">rust/demo.sh</text>
<text x="681.0" y="327.0" font-size="11" fill="#555" text-anchor="middle">rust/demo.sh</text>
<text x="442" y="24" font-size="14" fill="#b8650a" text-anchor="middle" font-weight="700">Three toolchains, one runner contract</text>
</svg>