<svg xmlns="http://www.w3.org/2000/svg" viewBox="0 0 890 410" font-family="'Red Hat Text', system-ui, sans-serif" role="img">
<defs><marker id="a" viewBox="0 0 10 10" refX="8.5" refY="5" markerWidth="9" markerHeight="9" orient="auto-start-reverse"><path d="M0,0 L10,5 L0,10 z" fill="#555"/></marker><marker id="am" viewBox="0 0 10 10" refX="8.5" refY="5" markerWidth="9" markerHeight="9" orient="auto-start-reverse"><path d="M0,0 L10,5 L0,10 z" fill="#b8650a"/></marker></defs>
<rect x="250" y="48" width="430" height="320" rx="12" fill="#fafafa" stroke="#ddd"/>
<text x="262" y="68" font-size="12" font-weight="700" fill="#1d1d1d">lsp-lgtm container (grafana/otel-lgtm:0.8.1)</text>
<rect x="30" y="96" width="155" height="60" rx="9" fill="#ffffff" stroke="#111111" stroke-width="2"/>
<text x="107.5" y="116.5" font-size="13.5" font-weight="700" fill="#111111" text-anchor="middle">host demo</text>
<text x="107.5" y="133.5" font-size="11.5" fill="#555555" text-anchor="middle">examples/NN</text>
<text x="107.5" y="148.5" font-size="11.5" fill="#555555" text-anchor="middle">localhost:4318</text>
<rect x="30" y="226" width="155" height="60" rx="9" fill="#f4f4f4" stroke="#888888" stroke-width="1.5"/>
<text x="107.5" y="246.5" font-size="13.5" font-weight="700" fill="#111111" text-anchor="middle">VM demo</text>
<text x="107.5" y="263.5" font-size="11.5" fill="#555555" text-anchor="middle">systems-target</text>
<text x="107.5" y="278.5" font-size="11.5" fill="#555555" text-anchor="middle">via gateway</text>
<rect x="275" y="156" width="125" height="72" rx="9" fill="#fff8ef" stroke="#e8870c" stroke-width="2"/>
<text x="337.5" y="182.5" font-size="13.5" font-weight="700" fill="#111111" text-anchor="middle">OTel Collector</text>
<text x="337.5" y="199.5" font-size="11.5" fill="#555555" text-anchor="middle">OTLP HTTP :4318</text>
<text x="337.5" y="214.5" font-size="11.5" fill="#555555" text-anchor="middle">OTLP gRPC :4317</text>
<rect x="445" y="78" width="95" height="50" rx="9" fill="#ffffff" stroke="#999999" stroke-width="1.5"/>
<text x="492.5" y="101.0" font-size="13.5" font-weight="700" fill="#111111" text-anchor="middle">Loki</text>
<text x="492.5" y="118.0" font-size="11.5" fill="#555555" text-anchor="middle">logs</text>
<rect x="445" y="168" width="95" height="50" rx="9" fill="#ffffff" stroke="#999999" stroke-width="1.5"/>
<text x="492.5" y="191.0" font-size="13.5" font-weight="700" fill="#111111" text-anchor="middle">Tempo</text>
<text x="492.5" y="208.0" font-size="11.5" fill="#555555" text-anchor="middle">traces</text>
<rect x="445" y="258" width="95" height="50" rx="9" fill="#ffffff" stroke="#999999" stroke-width="1.5"/>
<text x="492.5" y="281.0" font-size="13.5" font-weight="700" fill="#111111" text-anchor="middle">Mimir</text>
<text x="492.5" y="298.0" font-size="11.5" fill="#555555" text-anchor="middle">metrics</text>
<rect x="570" y="160" width="92" height="64" rx="9" fill="#ffffff" stroke="#111111" stroke-width="2"/>
<text x="616.0" y="190.0" font-size="13.5" font-weight="700" fill="#111111" text-anchor="middle">Grafana</text>
<text x="616.0" y="207.0" font-size="11.5" fill="#555555" text-anchor="middle">:3000</text>
<rect x="730" y="168" width="130" height="56" rx="9" fill="#eef4fb" stroke="#2f6db5" stroke-width="2"/>
<text x="795.0" y="194.0" font-size="13.5" font-weight="700" fill="#111111" text-anchor="middle">developer</text>
<text x="795.0" y="211.0" font-size="11.5" fill="#555555" text-anchor="middle">browser</text>
<path d="M185,118 L275,172" fill="none" stroke="#b8650a" stroke-width="2" marker-end="url(#am)"/>
<text x="230.0" y="135.0" font-size="11" fill="#ffffff" stroke="#ffffff" stroke-width="3" paint-order="stroke" text-anchor="middle">OTLP HTTP</text>
<text x="230.0" y="135.0" font-size="11" fill="#b8650a" text-anchor="middle">OTLP HTTP</text>
<path d="M185,262 L275,212" fill="none" stroke="#b8650a" stroke-width="2" marker-end="url(#am)"/>
<text x="230.0" y="263.0" font-size="11" fill="#ffffff" stroke="#ffffff" stroke-width="3" paint-order="stroke" text-anchor="middle">192.168.124.1:4318</text>
<text x="230.0" y="263.0" font-size="11" fill="#b8650a" text-anchor="middle">192.168.124.1:4318</text>
<path d="M400,172 L445,106" fill="none" stroke="#555" stroke-width="2" marker-end="url(#a)"/>
<path d="M400,192 L445,193" fill="none" stroke="#555" stroke-width="2" marker-end="url(#a)"/>
<path d="M400,212 L445,280" fill="none" stroke="#555" stroke-width="2" marker-end="url(#a)"/>
<path d="M540,103 L570,172" fill="none" stroke="#555" stroke-width="2" stroke-dasharray="5 4" marker-end="url(#a)"/>
<path d="M540,193 L570,192" fill="none" stroke="#555" stroke-width="2" stroke-dasharray="5 4" marker-end="url(#a)"/>
<path d="M540,283 L570,212" fill="none" stroke="#555" stroke-width="2" stroke-dasharray="5 4" marker-end="url(#a)"/>
<path d="M662,192 L730,194" fill="none" stroke="#555" stroke-width="2" marker-end="url(#a)"/>
<text x="696.0" y="245.0" font-size="11" fill="#ffffff" stroke="#ffffff" stroke-width="3" paint-order="stroke" text-anchor="middle">http://localhost:3000</text>
<text x="696.0" y="245.0" font-size="11" fill="#555" text-anchor="middle">http://localhost:3000</text>
<text x="107" y="78" font-size="13" fill="#1d1d1d" text-anchor="middle" font-weight="700">senders</text>
<text x="107" y="208" font-size="11" fill="#1d1d1d" text-anchor="middle">libvirt NAT gateway = host</text>
<text x="795" y="150" font-size="11" fill="#b8650a" text-anchor="middle">one container, whole stack</text>
</svg>