<svg xmlns="http://www.w3.org/2000/svg" viewBox="0 0 960 470" font-family="'Red Hat Text', system-ui, sans-serif" role="img">
<defs><marker id="a" viewBox="0 0 10 10" refX="8.5" refY="5" markerWidth="9" markerHeight="9" orient="auto-start-reverse"><path d="M0,0 L10,5 L0,10 z" fill="#555"/></marker><marker id="am" viewBox="0 0 10 10" refX="8.5" refY="5" markerWidth="9" markerHeight="9" orient="auto-start-reverse"><path d="M0,0 L10,5 L0,10 z" fill="#b8650a"/></marker></defs>
<rect x="20" y="20" width="300" height="330" rx="12" fill="#fafafa" stroke="#ddd"/>
<text x="32" y="40" font-size="12" font-weight="700" fill="#1d1d1d">C++ (dynamic, glibc)</text>
<rect x="330" y="20" width="300" height="330" rx="12" fill="#fafafa" stroke="#ddd"/>
<text x="342" y="40" font-size="12" font-weight="700" fill="#1d1d1d">Go (static, own runtime)</text>
<rect x="640" y="20" width="300" height="330" rx="12" fill="#fafafa" stroke="#ddd"/>
<text x="652" y="40" font-size="12" font-weight="700" fill="#1d1d1d">Rust (rustix, raw backend)</text>
<rect x="45" y="55" width="250" height="58" rx="9" fill="#eef4fb" stroke="#2f6db5" stroke-width="2"/>
<text x="170.0" y="82.0" font-size="13.5" font-weight="700" fill="#111111" text-anchor="middle">main.cpp</text>
<text x="170.0" y="99.0" font-size="11.5" fill="#555555" text-anchor="middle">::openat / ::write / ::getrandom</text>
<rect x="45" y="135" width="250" height="58" rx="9" fill="#ffffff" stroke="#111111" stroke-width="2"/>
<text x="170.0" y="162.0" font-size="13.5" font-weight="700" fill="#111111" text-anchor="middle">glibc wrappers (libc.so.6)</text>
<text x="170.0" y="179.0" font-size="11.5" fill="#555555" text-anchor="middle">errno, cancellation, vDSO use</text>
<rect x="45" y="215" width="250" height="58" rx="9" fill="#fff8ef" stroke="#e8870c" stroke-width="2"/>
<text x="170.0" y="242.0" font-size="13.5" font-weight="700" fill="#111111" text-anchor="middle">syscall insns in libc, not app</text>
<text x="170.0" y="259.0" font-size="11.5" fill="#555555" text-anchor="middle">objdump on app: 0</text>
<rect x="355" y="55" width="250" height="58" rx="9" fill="#eef4fb" stroke="#2f6db5" stroke-width="2"/>
<text x="480.0" y="82.0" font-size="13.5" font-weight="700" fill="#111111" text-anchor="middle">main.go</text>
<text x="480.0" y="99.0" font-size="11.5" fill="#555555" text-anchor="middle">golang.org/x/sys/unix</text>
<rect x="355" y="135" width="250" height="58" rx="9" fill="#ffffff" stroke="#111111" stroke-width="2"/>
<text x="480.0" y="162.0" font-size="13.5" font-weight="700" fill="#111111" text-anchor="middle">Go runtime: own ABI + stacks</text>
<text x="480.0" y="179.0" font-size="11.5" fill="#555555" text-anchor="middle">Syscall6, runtime.vgetrandom</text>
<rect x="355" y="215" width="250" height="58" rx="9" fill="#fff8ef" stroke="#e8870c" stroke-width="2"/>
<text x="480.0" y="242.0" font-size="13.5" font-weight="700" fill="#111111" text-anchor="middle">syscall insns in static binary</text>
<text x="480.0" y="259.0" font-size="11.5" fill="#555555" text-anchor="middle">objdump on app: 511</text>
<rect x="665" y="55" width="250" height="58" rx="9" fill="#eef4fb" stroke="#2f6db5" stroke-width="2"/>
<text x="790.0" y="82.0" font-size="13.5" font-weight="700" fill="#111111" text-anchor="middle">main.rs</text>
<text x="790.0" y="99.0" font-size="11.5" fill="#555555" text-anchor="middle">rustix::fs / io / thread / rand</text>
<rect x="665" y="135" width="250" height="58" rx="9" fill="#ffffff" stroke="#111111" stroke-width="2"/>
<text x="790.0" y="162.0" font-size="13.5" font-weight="700" fill="#111111" text-anchor="middle">rustix linux_raw backend</text>
<text x="790.0" y="179.0" font-size="11.5" fill="#555555" text-anchor="middle">Result&lt;_, Errno&gt;, no errno global</text>
<rect x="665" y="215" width="250" height="58" rx="9" fill="#fff8ef" stroke="#e8870c" stroke-width="2"/>
<text x="790.0" y="242.0" font-size="13.5" font-weight="700" fill="#111111" text-anchor="middle">syscall insns inlined in app</text>
<text x="790.0" y="259.0" font-size="11.5" fill="#555555" text-anchor="middle">objdump on app: 32</text>
<rect x="45" y="385" width="870" height="60" rx="9" fill="#111111" stroke="#111111" stroke-width="2"/>
<text x="480.0" y="413.0" font-size="13.5" font-weight="700" fill="#ffffff" text-anchor="middle">one kernel ABI for all three</text>
<text x="480.0" y="430.0" font-size="11.5" fill="#dddddd" text-anchor="middle">number in rax - args in rdi rsi rdx r10 r8 r9 - return in rax (negative = -errno)</text>
<path d="M170,113 L170,135" fill="none" stroke="#555" stroke-width="2" marker-end="url(#a)"/>
<path d="M170,193 L170,215" fill="none" stroke="#555" stroke-width="2" marker-end="url(#a)"/>
<path d="M170,273 L170,385" fill="none" stroke="#b8650a" stroke-width="2" marker-end="url(#am)"/>
<text x="200.0" y="323.0" font-size="11" fill="#ffffff" stroke="#ffffff" stroke-width="3" paint-order="stroke" text-anchor="middle">70 calls</text>
<text x="200.0" y="323.0" font-size="11" fill="#b8650a" text-anchor="middle">70 calls</text>
<path d="M480,113 L480,135" fill="none" stroke="#555" stroke-width="2" marker-end="url(#a)"/>
<path d="M480,193 L480,215" fill="none" stroke="#555" stroke-width="2" marker-end="url(#a)"/>
<path d="M480,273 L480,385" fill="none" stroke="#b8650a" stroke-width="2" marker-end="url(#am)"/>
<text x="514.0" y="323.0" font-size="11" fill="#ffffff" stroke="#ffffff" stroke-width="3" paint-order="stroke" text-anchor="middle">283 calls</text>
<text x="514.0" y="323.0" font-size="11" fill="#b8650a" text-anchor="middle">283 calls</text>
<path d="M790,113 L790,135" fill="none" stroke="#555" stroke-width="2" marker-end="url(#a)"/>
<path d="M790,193 L790,215" fill="none" stroke="#555" stroke-width="2" marker-end="url(#a)"/>
<path d="M790,273 L790,385" fill="none" stroke="#b8650a" stroke-width="2" marker-end="url(#am)"/>
<text x="820.0" y="323.0" font-size="11" fill="#ffffff" stroke="#ffffff" stroke-width="3" paint-order="stroke" text-anchor="middle">73 calls</text>
<text x="820.0" y="323.0" font-size="11" fill="#b8650a" text-anchor="middle">73 calls</text>
<text x="45" y="320" font-size="10.5" fill="#555555" text-anchor="start">clock_nanosleep via glibc</text>
<text x="355" y="320" font-size="10.5" fill="#555555" text-anchor="start">raw nanosleep; 4 clones, 114 rt_sigaction</text>
<text x="665" y="320" font-size="10.5" fill="#555555" text-anchor="start">raw nanosleep; libc only for startup</text>
<text x="45" y="372" font-size="11" fill="#b8650a" text-anchor="start">strace -c totals for one sysprobe run on the reference host (Go: -f, all threads)</text>
</svg>