<svg xmlns="http://www.w3.org/2000/svg" viewBox="0 0 960 372" font-family="'Red Hat Text', system-ui, sans-serif" role="img">
<defs><marker id="a" viewBox="0 0 10 10" refX="8.5" refY="5" markerWidth="9" markerHeight="9" orient="auto-start-reverse"><path d="M0,0 L10,5 L0,10 z" fill="#555"/></marker><marker id="am" viewBox="0 0 10 10" refX="8.5" refY="5" markerWidth="9" markerHeight="9" orient="auto-start-reverse"><path d="M0,0 L10,5 L0,10 z" fill="#b8650a"/></marker></defs>
<rect x="30" y="152" width="150" height="60" rx="9" fill="#111111" stroke="#111111" stroke-width="2"/>
<text x="105.0" y="180.0" font-size="13.5" font-weight="700" fill="#ffffff" text-anchor="middle">SIGINT</text>
<text x="105.0" y="197.0" font-size="11.5" fill="#dddddd" text-anchor="middle">kill -INT &lt;pid&gt;</text>
<rect x="262" y="52" width="210" height="56" rx="9" fill="#eef4fb" stroke="#2f6db5" stroke-width="2"/>
<text x="367.0" y="78.0" font-size="13.5" font-weight="700" fill="#111111" text-anchor="middle">walker / producer</text>
<text x="367.0" y="95.0" font-size="11.5" fill="#555555" text-anchor="middle">stops enumerating</text>
<rect x="262" y="148" width="210" height="56" rx="9" fill="#ffffff" stroke="#111111" stroke-width="2"/>
<text x="367.0" y="174.0" font-size="13.5" font-weight="700" fill="#111111" text-anchor="middle">idle workers</text>
<text x="367.0" y="191.0" font-size="11.5" fill="#555555" text-anchor="middle">wake from wait, exit</text>
<rect x="262" y="244" width="210" height="56" rx="9" fill="#fff8ef" stroke="#e8870c" stroke-width="2"/>
<text x="367.0" y="270.0" font-size="13.5" font-weight="700" fill="#111111" text-anchor="middle">busy workers</text>
<text x="367.0" y="287.0" font-size="11.5" fill="#555555" text-anchor="middle">finish the file in hand</text>
<rect x="544" y="148" width="170" height="56" rx="9" fill="#ffffff" stroke="#111111" stroke-width="2"/>
<text x="629.0" y="174.0" font-size="13.5" font-weight="700" fill="#111111" text-anchor="middle">queue closes,</text>
<text x="629.0" y="191.0" font-size="11.5" fill="#555555" text-anchor="middle">results drain</text>
<rect x="776" y="132" width="164" height="88" rx="9" fill="#111111" stroke="#111111" stroke-width="2"/>
<text x="858.0" y="166.5" font-size="13.5" font-weight="700" fill="#ffffff" text-anchor="middle">partial sorted lines</text>
<text x="858.0" y="183.5" font-size="11.5" fill="#dddddd" text-anchor="middle">parhash: interrupted</text>
<text x="858.0" y="198.5" font-size="11.5" fill="#dddddd" text-anchor="middle">exit 130</text>
<path d="M180,168 L262,84" fill="none" stroke="#b8650a" stroke-width="2" stroke-dasharray="5 4" marker-end="url(#am)"/>
<path d="M180,182 L262,176" fill="none" stroke="#b8650a" stroke-width="2" stroke-dasharray="5 4" marker-end="url(#am)"/>
<text x="227.0" y="171.0" font-size="11" fill="#ffffff" stroke="#ffffff" stroke-width="3" paint-order="stroke" text-anchor="middle">one flag flips</text>
<text x="227.0" y="171.0" font-size="11" fill="#b8650a" text-anchor="middle">one flag flips</text>
<path d="M180,196 L262,268" fill="none" stroke="#b8650a" stroke-width="2" stroke-dasharray="5 4" marker-end="url(#am)"/>
<path d="M472,80 L544,160" fill="none" stroke="#555" stroke-width="2" marker-end="url(#a)"/>
<text x="522.0" y="114.0" font-size="11" fill="#ffffff" stroke="#ffffff" stroke-width="3" paint-order="stroke" text-anchor="middle">no new tasks</text>
<text x="522.0" y="114.0" font-size="11" fill="#555" text-anchor="middle">no new tasks</text>
<path d="M472,176 L544,176" fill="none" stroke="#555" stroke-width="2" marker-end="url(#a)"/>
<path d="M472,272 L544,192" fill="none" stroke="#555" stroke-width="2" marker-end="url(#a)"/>
<text x="522.0" y="244.0" font-size="11" fill="#ffffff" stroke="#ffffff" stroke-width="3" paint-order="stroke" text-anchor="middle">last results</text>
<text x="522.0" y="244.0" font-size="11" fill="#555" text-anchor="middle">last results</text>
<path d="M714,176 L776,176" fill="none" stroke="#555" stroke-width="2" marker-end="url(#a)"/>
<text x="751.0" y="170.0" font-size="11" fill="#ffffff" stroke="#ffffff" stroke-width="3" paint-order="stroke" text-anchor="middle">sort + print</text>
<text x="751.0" y="170.0" font-size="11" fill="#555" text-anchor="middle">sort + print</text>
<text x="480" y="30" font-size="11" fill="#1d1d1d" text-anchor="middle" font-weight="700">the drain, observed live on a 6 GiB sparse tree</text>
<text x="480" y="344" font-size="11" fill="#1d1d1d" text-anchor="middle">observed: all 4 in-flight 64 MiB hashes completed after SIGINT; 20 well-formed lines, no summary, exit 130 in every language</text>
</svg>