<svg xmlns="http://www.w3.org/2000/svg" viewBox="0 0 900 460" font-family="'Red Hat Text', system-ui, sans-serif" role="img">
<defs><marker id="a" viewBox="0 0 10 10" refX="8.5" refY="5" markerWidth="9" markerHeight="9" orient="auto-start-reverse"><path d="M0,0 L10,5 L0,10 z" fill="#555"/></marker><marker id="am" viewBox="0 0 10 10" refX="8.5" refY="5" markerWidth="9" markerHeight="9" orient="auto-start-reverse"><path d="M0,0 L10,5 L0,10 z" fill="#b8650a"/></marker></defs>
<rect x="20" y="42" width="860" height="118" rx="12" fill="#eef4fb" stroke="#ddd"/>
<text x="32" y="62" font-size="12" font-weight="700" fill="#1d1d1d">fwatch process — fd table (ls -l /proc/PID/fd)</text>
<rect x="20" y="192" width="860" height="112" rx="12" fill="#f4f4f4" stroke="#ddd"/>
<text x="32" y="212" font-size="12" font-weight="700" fill="#1d1d1d">kernel — open file descriptions (flags + offset live here)</text>
<rect x="20" y="336" width="860" height="104" rx="12" fill="#f4f4f4" stroke="#ddd"/>
<text x="32" y="356" font-size="12" font-weight="700" fill="#1d1d1d">VFS — inodes (what ls -li numbers)</text>
<rect x="40" y="76" width="150" height="64" rx="9" fill="#ffffff" stroke="#999999" stroke-width="1.5" stroke-dasharray="6 4"/>
<text x="115.0" y="98.5" font-size="13.5" font-weight="700" fill="#111111" text-anchor="middle">fd 0 · 1 · 2</text>
<text x="115.0" y="115.5" font-size="11.5" fill="#555555" text-anchor="middle">stdin/out/err</text>
<text x="115.0" y="130.5" font-size="11.5" fill="#555555" text-anchor="middle">cloexec off</text>
<rect x="220" y="76" width="140" height="64" rx="9" fill="#eef4fb" stroke="#2f6db5" stroke-width="2"/>
<text x="290.0" y="98.5" font-size="13.5" font-weight="700" fill="#111111" text-anchor="middle">fd 3</text>
<text x="290.0" y="115.5" font-size="11.5" fill="#555555" text-anchor="middle">big/</text>
<text x="290.0" y="130.5" font-size="11.5" fill="#555555" text-anchor="middle">cloexec on</text>
<rect x="390" y="76" width="140" height="64" rx="9" fill="#eef4fb" stroke="#2f6db5" stroke-width="2"/>
<text x="460.0" y="98.5" font-size="13.5" font-weight="700" fill="#111111" text-anchor="middle">fd 4</text>
<text x="460.0" y="115.5" font-size="11.5" fill="#555555" text-anchor="middle">big/l1/</text>
<text x="460.0" y="130.5" font-size="11.5" fill="#555555" text-anchor="middle">cloexec on</text>
<rect x="560" y="76" width="140" height="64" rx="9" fill="#eef4fb" stroke="#2f6db5" stroke-width="2"/>
<text x="630.0" y="98.5" font-size="13.5" font-weight="700" fill="#111111" text-anchor="middle">fd 5</text>
<text x="630.0" y="115.5" font-size="11.5" fill="#555555" text-anchor="middle">big/l1/l2/</text>
<text x="630.0" y="130.5" font-size="11.5" fill="#555555" text-anchor="middle">cloexec on</text>
<rect x="730" y="76" width="140" height="64" rx="9" fill="#fff8ef" stroke="#e8870c" stroke-width="2"/>
<text x="800.0" y="98.5" font-size="13.5" font-weight="700" fill="#111111" text-anchor="middle">fd 6</text>
<text x="800.0" y="115.5" font-size="11.5" fill="#555555" text-anchor="middle">big/l1/l2/l3/</text>
<text x="800.0" y="130.5" font-size="11.5" fill="#555555" text-anchor="middle">cloexec on</text>
<rect x="220" y="226" width="140" height="62" rx="9" fill="#ffffff" stroke="#111111" stroke-width="2"/>
<text x="290.0" y="247.5" font-size="13.5" font-weight="700" fill="#111111" text-anchor="middle">description</text>
<text x="290.0" y="264.5" font-size="11.5" fill="#555555" text-anchor="middle">flags 02700000</text>
<text x="290.0" y="279.5" font-size="11.5" fill="#555555" text-anchor="middle">pos (readdir)</text>
<rect x="390" y="226" width="140" height="62" rx="9" fill="#ffffff" stroke="#111111" stroke-width="2"/>
<text x="460.0" y="247.5" font-size="13.5" font-weight="700" fill="#111111" text-anchor="middle">description</text>
<text x="460.0" y="264.5" font-size="11.5" fill="#555555" text-anchor="middle">flags 02700000</text>
<text x="460.0" y="279.5" font-size="11.5" fill="#555555" text-anchor="middle">pos (readdir)</text>
<rect x="560" y="226" width="140" height="62" rx="9" fill="#ffffff" stroke="#111111" stroke-width="2"/>
<text x="630.0" y="247.5" font-size="13.5" font-weight="700" fill="#111111" text-anchor="middle">description</text>
<text x="630.0" y="264.5" font-size="11.5" fill="#555555" text-anchor="middle">flags 02700000</text>
<text x="630.0" y="279.5" font-size="11.5" fill="#555555" text-anchor="middle">pos (readdir)</text>
<rect x="730" y="226" width="140" height="62" rx="9" fill="#fff8ef" stroke="#e8870c" stroke-width="2"/>
<text x="800.0" y="247.5" font-size="13.5" font-weight="700" fill="#111111" text-anchor="middle">description</text>
<text x="800.0" y="264.5" font-size="11.5" fill="#555555" text-anchor="middle">flags 02700000</text>
<text x="800.0" y="279.5" font-size="11.5" fill="#555555" text-anchor="middle">pos 1980</text>
<rect x="220" y="368" width="140" height="56" rx="9" fill="#f4f4f4" stroke="#888888" stroke-width="1.5"/>
<text x="290.0" y="394.0" font-size="13.5" font-weight="700" fill="#111111" text-anchor="middle">inode 69926</text>
<text x="290.0" y="411.0" font-size="11.5" fill="#555555" text-anchor="middle">directory</text>
<rect x="390" y="368" width="140" height="56" rx="9" fill="#f4f4f4" stroke="#888888" stroke-width="1.5"/>
<text x="460.0" y="394.0" font-size="13.5" font-weight="700" fill="#111111" text-anchor="middle">inode 69927</text>
<text x="460.0" y="411.0" font-size="11.5" fill="#555555" text-anchor="middle">directory</text>
<rect x="560" y="368" width="140" height="56" rx="9" fill="#f4f4f4" stroke="#888888" stroke-width="1.5"/>
<text x="630.0" y="394.0" font-size="13.5" font-weight="700" fill="#111111" text-anchor="middle">inode 69928</text>
<text x="630.0" y="411.0" font-size="11.5" fill="#555555" text-anchor="middle">directory</text>
<rect x="730" y="368" width="140" height="56" rx="9" fill="#fff8ef" stroke="#e8870c" stroke-width="2"/>
<text x="800.0" y="394.0" font-size="13.5" font-weight="700" fill="#111111" text-anchor="middle">inode 69929</text>
<text x="800.0" y="411.0" font-size="11.5" fill="#555555" text-anchor="middle">3000 entries</text>
<path d="M290.0,140 L290.0,226" fill="none" stroke="#555" stroke-width="2" marker-end="url(#a)"/>
<path d="M290.0,288 L290.0,368" fill="none" stroke="#555" stroke-width="2" marker-end="url(#a)"/>
<path d="M460.0,140 L460.0,226" fill="none" stroke="#555" stroke-width="2" marker-end="url(#a)"/>
<path d="M460.0,288 L460.0,368" fill="none" stroke="#555" stroke-width="2" marker-end="url(#a)"/>
<path d="M630.0,140 L630.0,226" fill="none" stroke="#555" stroke-width="2" marker-end="url(#a)"/>
<path d="M630.0,288 L630.0,368" fill="none" stroke="#555" stroke-width="2" marker-end="url(#a)"/>
<path d="M800.0,140 L800.0,226" fill="none" stroke="#b8650a" stroke-width="2" marker-end="url(#am)"/>
<path d="M800.0,288 L800.0,368" fill="none" stroke="#b8650a" stroke-width="2" marker-end="url(#am)"/>
<path d="M360,96 L390,96" fill="none" stroke="#555" stroke-width="2" stroke-dasharray="5 4" marker-end="url(#a)"/>
<text x="381.0" y="92.0" font-size="11" fill="#ffffff" stroke="#ffffff" stroke-width="3" paint-order="stroke" text-anchor="middle">openat</text>
<text x="381.0" y="92.0" font-size="11" fill="#555" text-anchor="middle">openat</text>
<path d="M530,96 L560,96" fill="none" stroke="#555" stroke-width="2" stroke-dasharray="5 4" marker-end="url(#a)"/>
<text x="551.0" y="92.0" font-size="11" fill="#ffffff" stroke="#ffffff" stroke-width="3" paint-order="stroke" text-anchor="middle">openat</text>
<text x="551.0" y="92.0" font-size="11" fill="#555" text-anchor="middle">openat</text>
<path d="M700,96 L730,96" fill="none" stroke="#555" stroke-width="2" stroke-dasharray="5 4" marker-end="url(#a)"/>
<text x="721.0" y="92.0" font-size="11" fill="#ffffff" stroke="#ffffff" stroke-width="3" paint-order="stroke" text-anchor="middle">openat</text>
<text x="721.0" y="92.0" font-size="11" fill="#555" text-anchor="middle">openat</text>
<text x="450.0" y="28" font-size="11" fill="#1d1d1d" text-anchor="middle" font-weight="700">one paused fwatch walk: four dirfds, one recursion chain — cloexec is a per-fd bit; flags and offset are per-description</text>
<text x="115.0" y="250" font-size="11" fill="#555555" text-anchor="middle">dup/fork copy fd entries;</text>
<text x="115.0" y="266" font-size="11" fill="#555555" text-anchor="middle">descriptions are shared</text>
<text x="115.0" y="396" font-size="11" fill="#555555" text-anchor="middle">fdinfo ino == ls -li</text>
</svg>