<svg xmlns="http://www.w3.org/2000/svg" viewBox="0 0 940 490" font-family="'Red Hat Text', system-ui, sans-serif" role="img">
<defs><marker id="a" viewBox="0 0 10 10" refX="8.5" refY="5" markerWidth="9" markerHeight="9" orient="auto-start-reverse"><path d="M0,0 L10,5 L0,10 z" fill="#555"/></marker><marker id="am" viewBox="0 0 10 10" refX="8.5" refY="5" markerWidth="9" markerHeight="9" orient="auto-start-reverse"><path d="M0,0 L10,5 L0,10 z" fill="#b8650a"/></marker></defs>
<rect x="20" y="20" width="900" height="190" rx="12" fill="#f4f4f4" stroke="#ddd"/>
<text x="32" y="40" font-size="12" font-weight="700" fill="#1d1d1d">kernel — every signal passes the same three words</text>
<rect x="20" y="230" width="900" height="240" rx="12" fill="#eef4fb" stroke="#ddd"/>
<text x="32" y="250" font-size="12" font-weight="700" fill="#1d1d1d">pmon supervise — three ways to hear the same signals, none in signal context</text>
<rect x="40" y="55" width="150" height="52" rx="9" fill="#ffffff" stroke="#999999" stroke-width="1.5"/>
<text x="115.0" y="79.0" font-size="13.5" font-weight="700" fill="#111111" text-anchor="middle">kill -TERM &lt;pid&gt;</text>
<text x="115.0" y="96.0" font-size="11.5" fill="#555555" text-anchor="middle">tgkill, terminal ^C</text>
<rect x="40" y="125" width="150" height="52" rx="9" fill="#ffffff" stroke="#999999" stroke-width="1.5"/>
<text x="115.0" y="149.0" font-size="13.5" font-weight="700" fill="#111111" text-anchor="middle">child exits</text>
<text x="115.0" y="166.0" font-size="11.5" fill="#555555" text-anchor="middle">kernel raises SIGCHLD</text>
<rect x="240" y="55" width="200" height="58" rx="9" fill="#ffffff" stroke="#111111" stroke-width="2"/>
<text x="340.0" y="82.0" font-size="13.5" font-weight="700" fill="#111111" text-anchor="middle">disposition (per-process)</text>
<text x="340.0" y="99.0" font-size="11.5" fill="#555555" text-anchor="middle">SIG_DFL / SIG_IGN / handler</text>
<rect x="240" y="128" width="200" height="58" rx="9" fill="#ffffff" stroke="#111111" stroke-width="2"/>
<text x="340.0" y="155.0" font-size="13.5" font-weight="700" fill="#111111" text-anchor="middle">mask (per-thread)</text>
<text x="340.0" y="172.0" font-size="11.5" fill="#555555" text-anchor="middle">blocked signals wait</text>
<rect x="490" y="90" width="200" height="58" rx="9" fill="#fff8ef" stroke="#e8870c" stroke-width="2"/>
<text x="590.0" y="117.0" font-size="13.5" font-weight="700" fill="#111111" text-anchor="middle">pending set</text>
<text x="590.0" y="134.0" font-size="11.5" fill="#555555" text-anchor="middle">one bit per signal — coalesces</text>
<rect x="730" y="90" width="170" height="58" rx="9" fill="#ffffff" stroke="#999999" stroke-width="1.5" stroke-dasharray="6 4"/>
<text x="815.0" y="117.0" font-size="13.5" font-weight="700" fill="#111111" text-anchor="middle">delivery</text>
<text x="815.0" y="134.0" font-size="11.5" fill="#555555" text-anchor="middle">only when unblocked</text>
<rect x="40" y="270" width="260" height="58" rx="9" fill="#eef4fb" stroke="#2f6db5" stroke-width="2"/>
<text x="170.0" y="297.0" font-size="13.5" font-weight="700" fill="#111111" text-anchor="middle">C++ - signalfd(2)</text>
<text x="170.0" y="314.0" font-size="11.5" fill="#555555" text-anchor="middle">mask blocks all four signals</text>
<rect x="40" y="390" width="260" height="58" rx="9" fill="#ffffff" stroke="#111111" stroke-width="2"/>
<text x="170.0" y="417.0" font-size="13.5" font-weight="700" fill="#111111" text-anchor="middle">poll + read(sfd)</text>
<text x="170.0" y="434.0" font-size="11.5" fill="#555555" text-anchor="middle">signalfd_siginfo record</text>
<rect x="340" y="270" width="260" height="58" rx="9" fill="#eef4fb" stroke="#2f6db5" stroke-width="2"/>
<text x="470.0" y="297.0" font-size="13.5" font-weight="700" fill="#111111" text-anchor="middle">Go - runtime handler</text>
<text x="470.0" y="314.0" font-size="11.5" fill="#555555" text-anchor="middle">installed by 114 rt_sigaction</text>
<rect x="340" y="390" width="260" height="58" rx="9" fill="#ffffff" stroke="#111111" stroke-width="2"/>
<text x="470.0" y="417.0" font-size="13.5" font-weight="700" fill="#111111" text-anchor="middle">signal.Notify channel</text>
<text x="470.0" y="434.0" font-size="11.5" fill="#555555" text-anchor="middle">select over sig / wait / timer</text>
<rect x="640" y="270" width="260" height="58" rx="9" fill="#eef4fb" stroke="#2f6db5" stroke-width="2"/>
<text x="770.0" y="297.0" font-size="13.5" font-weight="700" fill="#111111" text-anchor="middle">Rust - self-pipe handler</text>
<text x="770.0" y="314.0" font-size="11.5" fill="#555555" text-anchor="middle">AtomicBool + write(doorbell)</text>
<rect x="640" y="390" width="260" height="58" rx="9" fill="#ffffff" stroke="#111111" stroke-width="2"/>
<text x="770.0" y="417.0" font-size="13.5" font-weight="700" fill="#111111" text-anchor="middle">poll pipe, drain, check flags</text>
<text x="770.0" y="434.0" font-size="11.5" fill="#555555" text-anchor="middle">waitpid(WNOHANG) for truth</text>
<path d="M190,81 L240,84" fill="none" stroke="#555" stroke-width="2" marker-end="url(#a)"/>
<path d="M190,151 L240,157" fill="none" stroke="#555" stroke-width="2" marker-end="url(#a)"/>
<path d="M440,84 L490,108" fill="none" stroke="#555" stroke-width="2" marker-end="url(#a)"/>
<text x="471.0" y="86.0" font-size="11" fill="#ffffff" stroke="#ffffff" stroke-width="3" paint-order="stroke" text-anchor="middle">checked first</text>
<text x="471.0" y="86.0" font-size="11" fill="#555" text-anchor="middle">checked first</text>
<path d="M440,157 L490,130" fill="none" stroke="#555" stroke-width="2" marker-end="url(#a)"/>
<text x="471.0" y="159.5" font-size="11" fill="#ffffff" stroke="#ffffff" stroke-width="3" paint-order="stroke" text-anchor="middle">blocked? stay pending</text>
<text x="471.0" y="159.5" font-size="11" fill="#555" text-anchor="middle">blocked? stay pending</text>
<path d="M690,119 L730,119" fill="none" stroke="#555" stroke-width="2" marker-end="url(#a)"/>
<path d="M170,328 L170,390" fill="none" stroke="#b8650a" stroke-width="2" marker-end="url(#am)"/>
<text x="176.0" y="353.0" font-size="11" fill="#ffffff" stroke="#ffffff" stroke-width="3" paint-order="stroke" text-anchor="middle">read as data</text>
<text x="176.0" y="353.0" font-size="11" fill="#b8650a" text-anchor="middle">read as data</text>
<path d="M470,328 L470,390" fill="none" stroke="#b8650a" stroke-width="2" marker-end="url(#am)"/>
<text x="476.0" y="353.0" font-size="11" fill="#ffffff" stroke="#ffffff" stroke-width="3" paint-order="stroke" text-anchor="middle">channel send</text>
<text x="476.0" y="353.0" font-size="11" fill="#b8650a" text-anchor="middle">channel send</text>
<path d="M770,328 L770,390" fill="none" stroke="#b8650a" stroke-width="2" marker-end="url(#am)"/>
<text x="776.0" y="353.0" font-size="11" fill="#ffffff" stroke="#ffffff" stroke-width="3" paint-order="stroke" text-anchor="middle">doorbell byte</text>
<text x="776.0" y="353.0" font-size="11" fill="#b8650a" text-anchor="middle">doorbell byte</text>
<path d="M560,148 L170,270" fill="none" stroke="#555" stroke-width="2" stroke-dasharray="5 4" marker-end="url(#a)"/>
<path d="M590,148 L470,270" fill="none" stroke="#555" stroke-width="2" stroke-dasharray="5 4" marker-end="url(#a)"/>
<path d="M620,148 L770,270" fill="none" stroke="#555" stroke-width="2" stroke-dasharray="5 4" marker-end="url(#a)"/>
<text x="730" y="175" font-size="10.5" fill="#555555" text-anchor="start">handlers may run on any thread,</text>
<text x="730" y="189" font-size="10.5" fill="#555555" text-anchor="start">between any two instructions</text>
</svg>