<svg xmlns="http://www.w3.org/2000/svg" viewBox="0 0 940 470" font-family="'Red Hat Text', system-ui, sans-serif" role="img">
<defs><marker id="a" viewBox="0 0 10 10" refX="8.5" refY="5" markerWidth="9" markerHeight="9" orient="auto-start-reverse"><path d="M0,0 L10,5 L0,10 z" fill="#555"/></marker><marker id="am" viewBox="0 0 10 10" refX="8.5" refY="5" markerWidth="9" markerHeight="9" orient="auto-start-reverse"><path d="M0,0 L10,5 L0,10 z" fill="#b8650a"/></marker></defs>
<rect x="20" y="20" width="900" height="180" rx="12" fill="#eef4fb" stroke="#ddd"/>
<text x="32" y="40" font-size="12" font-weight="700" fill="#1d1d1d">READ PATH — recv to EAGAIN, reassemble frames, fan out</text>
<rect x="20" y="215" width="900" height="235" rx="12" fill="#fff8ef" stroke="#ddd"/>
<text x="32" y="235" font-size="12" font-weight="700" fill="#1d1d1d">WRITE PATH + BACKPRESSURE — outbuf queue, EPOLLOUT re-arm</text>
<rect x="45" y="70" width="165" height="66" rx="9" fill="#eef4fb" stroke="#2f6db5" stroke-width="2"/>
<text x="127.5" y="93.5" font-size="13.5" font-weight="700" fill="#111111" text-anchor="middle">recv() loop</text>
<text x="127.5" y="110.5" font-size="11.5" fill="#555555" text-anchor="middle">drain nonblocking</text>
<text x="127.5" y="125.5" font-size="11.5" fill="#555555" text-anchor="middle">until EAGAIN</text>
<rect x="255" y="70" width="165" height="66" rx="9" fill="#fff8ef" stroke="#e8870c" stroke-width="2"/>
<text x="337.5" y="93.5" font-size="13.5" font-weight="700" fill="#111111" text-anchor="middle">inbuf</text>
<text x="337.5" y="110.5" font-size="11.5" fill="#555555" text-anchor="middle">reassemble partial</text>
<text x="337.5" y="125.5" font-size="11.5" fill="#555555" text-anchor="middle">frames across reads</text>
<rect x="465" y="70" width="165" height="66" rx="9" fill="#ffffff" stroke="#111111" stroke-width="2"/>
<text x="547.5" y="93.5" font-size="13.5" font-weight="700" fill="#111111" text-anchor="middle">take_frame()</text>
<text x="547.5" y="110.5" font-size="11.5" fill="#555555" text-anchor="middle">one whole 6+LEN</text>
<text x="547.5" y="125.5" font-size="11.5" fill="#555555" text-anchor="middle">frame? or wait</text>
<rect x="690" y="70" width="205" height="66" rx="9" fill="#ffffff" stroke="#111111" stroke-width="2"/>
<text x="792.5" y="93.5" font-size="13.5" font-weight="700" fill="#111111" text-anchor="middle">MSG -&gt; broadcast()</text>
<text x="792.5" y="110.5" font-size="11.5" fill="#555555" text-anchor="middle">append frame to EVERY</text>
<text x="792.5" y="125.5" font-size="11.5" fill="#555555" text-anchor="middle">conn&#x27;s outbuf</text>
<rect x="690" y="255" width="205" height="62" rx="9" fill="#ffffff" stroke="#111111" stroke-width="2"/>
<text x="792.5" y="284.0" font-size="13.5" font-weight="700" fill="#111111" text-anchor="middle">queue() + flush()</text>
<text x="792.5" y="301.0" font-size="11.5" fill="#555555" text-anchor="middle">send() what fits now</text>
<rect x="465" y="250" width="165" height="72" rx="9" fill="#fff8ef" stroke="#e8870c" stroke-width="2"/>
<text x="547.5" y="276.5" font-size="13.5" font-weight="700" fill="#111111" text-anchor="middle">outbuf</text>
<text x="547.5" y="293.5" font-size="11.5" fill="#555555" text-anchor="middle">the backpressure queue</text>
<text x="547.5" y="308.5" font-size="11.5" fill="#555555" text-anchor="middle">remainder after EAGAIN</text>
<rect x="255" y="255" width="165" height="62" rx="9" fill="#f4f4f4" stroke="#888888" stroke-width="1.5"/>
<text x="337.5" y="284.0" font-size="13.5" font-weight="700" fill="#111111" text-anchor="middle">kernel socket buffer</text>
<text x="337.5" y="301.0" font-size="11.5" fill="#555555" text-anchor="middle">full -&gt; send() EAGAIN</text>
<rect x="45" y="362" width="185" height="68" rx="9" fill="#eef4fb" stroke="#2f6db5" stroke-width="2"/>
<text x="137.5" y="386.5" font-size="13.5" font-weight="700" fill="#111111" text-anchor="middle">epoll_wait</text>
<text x="137.5" y="403.5" font-size="11.5" fill="#555555" text-anchor="middle">later reports EPOLLOUT</text>
<text x="137.5" y="418.5" font-size="11.5" fill="#555555" text-anchor="middle">for this conn</text>
<path d="M210,103 L253,103" fill="none" stroke="#555" stroke-width="2" marker-end="url(#a)"/>
<path d="M420,103 L463,103" fill="none" stroke="#555" stroke-width="2" marker-end="url(#a)"/>
<path d="M630,103 L688,103" fill="none" stroke="#555" stroke-width="2" marker-end="url(#a)"/>
<path d="M792,136 L792,253" fill="none" stroke="#555" stroke-width="2" marker-end="url(#a)"/>
<text x="798.0" y="188.5" font-size="11" fill="#ffffff" stroke="#ffffff" stroke-width="3" paint-order="stroke" text-anchor="middle">for each conn</text>
<text x="798.0" y="188.5" font-size="11" fill="#555" text-anchor="middle">for each conn</text>
<path d="M690,286 L632,286" fill="none" stroke="#555" stroke-width="2" marker-end="url(#a)"/>
<path d="M465,286 L422,286" fill="none" stroke="#555" stroke-width="2" marker-end="url(#a)"/>
<text x="449.5" y="280.0" font-size="11" fill="#ffffff" stroke="#ffffff" stroke-width="3" paint-order="stroke" text-anchor="middle">send() EAGAIN</text>
<text x="449.5" y="280.0" font-size="11" fill="#555" text-anchor="middle">send() EAGAIN</text>
<path d="M470,322 L175,358" fill="none" stroke="#b8650a" stroke-width="2" marker-end="url(#am)"/>
<text x="362.5" y="328.0" font-size="11" fill="#ffffff" stroke="#ffffff" stroke-width="3" paint-order="stroke" text-anchor="middle">full: arm EPOLLOUT</text>
<text x="362.5" y="328.0" font-size="11" fill="#b8650a" text-anchor="middle">full: arm EPOLLOUT</text>
<path d="M232,382 L688,322" fill="none" stroke="#b8650a" stroke-width="2" marker-end="url(#am)"/>
<text x="520.0" y="368.0" font-size="11" fill="#ffffff" stroke="#ffffff" stroke-width="3" paint-order="stroke" text-anchor="middle">EPOLLOUT wakeup</text>
<text x="520.0" y="368.0" font-size="11" fill="#b8650a" text-anchor="middle">EPOLLOUT wakeup</text>
<text x="235" y="415" font-size="10" fill="#555555" text-anchor="start">level-triggered: EPOLLIN always armed; EPOLLOUT armed only while outbuf is non-empty</text>
</svg>