<svg xmlns="http://www.w3.org/2000/svg" viewBox="0 0 820 566" font-family="'Red Hat Text', system-ui, sans-serif" role="img">
<defs><marker id="a" viewBox="0 0 10 10" refX="8.5" refY="5" markerWidth="9" markerHeight="9" orient="auto-start-reverse"><path d="M0,0 L10,5 L0,10 z" fill="#555"/></marker><marker id="am" viewBox="0 0 10 10" refX="8.5" refY="5" markerWidth="9" markerHeight="9" orient="auto-start-reverse"><path d="M0,0 L10,5 L0,10 z" fill="#b8650a"/></marker></defs>
<rect x="178" y="92" width="4" height="462" rx="12" fill="#e8870c" stroke="#ddd"/>
<rect x="638" y="92" width="4" height="214" rx="12" fill="#bbbbbb" stroke="#ddd"/>
<rect x="108" y="42" width="144" height="46" rx="9" fill="#eef4fb" stroke="#2f6db5" stroke-width="2"/>
<text x="180.0" y="63.0" font-size="13.5" font-weight="700" fill="#111111" text-anchor="middle">connector B</text>
<text x="180.0" y="80.0" font-size="11.5" fill="#555555" text-anchor="middle">dials + reconnects</text>
<rect x="568" y="42" width="144" height="46" rx="9" fill="#eef4fb" stroke="#2f6db5" stroke-width="2"/>
<text x="640.0" y="63.0" font-size="13.5" font-weight="700" fill="#111111" text-anchor="middle">listener A</text>
<text x="640.0" y="80.0" font-size="11.5" fill="#555555" text-anchor="middle">accept loop</text>
<rect x="70" y="356" width="236" height="44" rx="9" fill="#fff8ef" stroke="#e8870c" stroke-width="2"/>
<text x="188.0" y="376.0" font-size="13.5" font-weight="700" fill="#111111" text-anchor="middle">deadline fires on silence</text>
<text x="188.0" y="393.0" font-size="11.5" fill="#555555" text-anchor="middle">chatterd: peer A timed out</text>
<rect x="70" y="414" width="236" height="32" rx="9" fill="#ffffff" stroke="#111111" stroke-width="2"/>
<text x="188.0" y="435.5" font-size="13.5" font-weight="700" fill="#111111" text-anchor="middle">reconnecting to A in 107 ms</text>
<rect x="70" y="452" width="236" height="32" rx="9" fill="#ffffff" stroke="#111111" stroke-width="2"/>
<text x="188.0" y="473.5" font-size="13.5" font-weight="700" fill="#111111" text-anchor="middle">reconnecting to A in 245 ms</text>
<rect x="70" y="490" width="236" height="32" rx="9" fill="#ffffff" stroke="#111111" stroke-width="2"/>
<text x="188.0" y="511.5" font-size="13.5" font-weight="700" fill="#111111" text-anchor="middle">reconnecting to A in 712 ms</text>
<path d="M182,120 L636,120" fill="none" stroke="#555" stroke-width="2" marker-end="url(#a)"/>
<text x="415.0" y="114.0" font-size="11" fill="#ffffff" stroke="#ffffff" stroke-width="3" paint-order="stroke" text-anchor="middle">HELLO &#x27;B&#x27;</text>
<text x="415.0" y="114.0" font-size="11" fill="#555" text-anchor="middle">HELLO &#x27;B&#x27;</text>
<path d="M636,150 L182,150" fill="none" stroke="#555" stroke-width="2" marker-end="url(#a)"/>
<text x="415.0" y="144.0" font-size="11" fill="#ffffff" stroke="#ffffff" stroke-width="3" paint-order="stroke" text-anchor="middle">HELLO &#x27;A&#x27;</text>
<text x="415.0" y="144.0" font-size="11" fill="#555" text-anchor="middle">HELLO &#x27;A&#x27;</text>
<path d="M182,210 L636,210" fill="none" stroke="#b8650a" stroke-width="2" marker-end="url(#am)"/>
<text x="415.0" y="204.0" font-size="11" fill="#ffffff" stroke="#ffffff" stroke-width="3" paint-order="stroke" text-anchor="middle">PING every 300 ms</text>
<text x="415.0" y="204.0" font-size="11" fill="#b8650a" text-anchor="middle">PING every 300 ms</text>
<path d="M636,240 L182,240" fill="none" stroke="#b8650a" stroke-width="2" marker-end="url(#am)"/>
<text x="415.0" y="234.0" font-size="11" fill="#ffffff" stroke="#ffffff" stroke-width="3" paint-order="stroke" text-anchor="middle">PING -&gt; resets B deadline</text>
<text x="415.0" y="234.0" font-size="11" fill="#b8650a" text-anchor="middle">PING -&gt; resets B deadline</text>
<path d="M182,330 L636,330" fill="none" stroke="#555" stroke-width="2" stroke-dasharray="5 4" marker-end="url(#a)"/>
<text x="415.0" y="324.0" font-size="11" fill="#ffffff" stroke="#ffffff" stroke-width="3" paint-order="stroke" text-anchor="middle">PING (broken pipe, dropped)</text>
<text x="415.0" y="324.0" font-size="11" fill="#555" text-anchor="middle">PING (broken pipe, dropped)</text>
<path d="M188,400 L188,414" fill="none" stroke="#b8650a" stroke-width="2" marker-end="url(#am)"/>
<path d="M188,446 L188,452" fill="none" stroke="#b8650a" stroke-width="2" marker-end="url(#am)"/>
<path d="M188,484 L188,490" fill="none" stroke="#b8650a" stroke-width="2" marker-end="url(#am)"/>
<text x="410" y="180" font-size="11" fill="#1d1d1d" text-anchor="middle" font-weight="700">both print &#x27;linked&#x27;; --message delivered each way</text>
<text x="410" y="278" font-size="11" fill="#1d1d1d" text-anchor="middle">any frame: deadline = mono_now() + timeout  (Reset)</text>
<text x="640" y="300" font-size="11" fill="#b8650a" text-anchor="middle">A killed -&gt; socket EOF</text>
<text x="330" y="430" font-size="11" fill="#1d1d1d" text-anchor="start" font-weight="700">equal-jitter backoff:</text>
<text x="330" y="448" font-size="11" fill="#1d1d1d" text-anchor="start">delay = B/2 + rand(0..B/2)</text>
<text x="330" y="466" font-size="11" fill="#1d1d1d" text-anchor="start">B doubles per attempt: 200, 400, 800 ...</text>
<text x="330" y="484" font-size="11" fill="#1d1d1d" text-anchor="start">capped at --max-backoff-ms; reset on a fresh link</text>
</svg>