<svg xmlns="http://www.w3.org/2000/svg" viewBox="0 0 980 410" font-family="'Red Hat Text', system-ui, sans-serif" role="img">
<defs><marker id="a" viewBox="0 0 10 10" refX="8.5" refY="5" markerWidth="9" markerHeight="9" orient="auto-start-reverse"><path d="M0,0 L10,5 L0,10 z" fill="#555"/></marker><marker id="am" viewBox="0 0 10 10" refX="8.5" refY="5" markerWidth="9" markerHeight="9" orient="auto-start-reverse"><path d="M0,0 L10,5 L0,10 z" fill="#b8650a"/></marker></defs>
<rect x="40" y="66" width="150" height="44" rx="9" fill="#eef4fb" stroke="#2f6db5" stroke-width="2"/>
<text x="115.0" y="86.0" font-size="13.5" font-weight="700" fill="#111111" text-anchor="middle">producer 0</text>
<text x="115.0" y="103.0" font-size="11.5" fill="#555555" text-anchor="middle">owns i = 0 (mod P)</text>
<rect x="40" y="122" width="150" height="44" rx="9" fill="#eef4fb" stroke="#2f6db5" stroke-width="2"/>
<text x="115.0" y="142.0" font-size="13.5" font-weight="700" fill="#111111" text-anchor="middle">producer 1</text>
<text x="115.0" y="159.0" font-size="11.5" fill="#555555" text-anchor="middle">owns i = 1 (mod P)</text>
<rect x="40" y="178" width="150" height="44" rx="9" fill="#ffffff" stroke="#999999" stroke-width="1.5" stroke-dasharray="6 4"/>
<text x="115.0" y="198.0" font-size="13.5" font-weight="700" fill="#111111" text-anchor="middle">...</text>
<text x="115.0" y="215.0" font-size="11.5" fill="#555555" text-anchor="middle">producer P-1</text>
<rect x="360" y="96" width="230" height="100" rx="9" fill="#fff8ef" stroke="#e8870c" stroke-width="2"/>
<text x="475.0" y="129.0" font-size="13.5" font-weight="700" fill="#111111" text-anchor="middle">bounded queue, cap K</text>
<text x="475.0" y="146.0" font-size="11.5" fill="#555555" text-anchor="middle">mutex + not_full / not_empty</text>
<text x="475.0" y="161.0" font-size="11.5" fill="#555555" text-anchor="middle">(= buffered chan in Go)</text>
<text x="475.0" y="176.0" font-size="11.5" fill="#555555" text-anchor="middle">produced: atomic&lt;long&gt;</text>
<rect x="780" y="66" width="170" height="44" rx="9" fill="#eef4fb" stroke="#2f6db5" stroke-width="2"/>
<text x="865.0" y="86.0" font-size="13.5" font-weight="700" fill="#111111" text-anchor="middle">consumer 0</text>
<text x="865.0" y="103.0" font-size="11.5" fill="#555555" text-anchor="middle">local (count, sum)</text>
<rect x="780" y="122" width="170" height="44" rx="9" fill="#eef4fb" stroke="#2f6db5" stroke-width="2"/>
<text x="865.0" y="142.0" font-size="13.5" font-weight="700" fill="#111111" text-anchor="middle">consumer 1</text>
<text x="865.0" y="159.0" font-size="11.5" fill="#555555" text-anchor="middle">local (count, sum)</text>
<rect x="780" y="178" width="170" height="44" rx="9" fill="#ffffff" stroke="#999999" stroke-width="1.5" stroke-dasharray="6 4"/>
<text x="865.0" y="198.0" font-size="13.5" font-weight="700" fill="#111111" text-anchor="middle">...</text>
<text x="865.0" y="215.0" font-size="11.5" fill="#555555" text-anchor="middle">consumer C-1</text>
<rect x="560" y="320" width="300" height="62" rx="9" fill="#111111" stroke="#111111" stroke-width="2"/>
<text x="710.0" y="341.5" font-size="13.5" font-weight="700" fill="#ffffff" text-anchor="middle">XOR-fold locals after join</text>
<text x="710.0" y="358.5" font-size="11.5" fill="#dddddd" text-anchor="middle">checksum = 42b3746c6cee7465</text>
<text x="710.0" y="373.5" font-size="11.5" fill="#dddddd" text-anchor="middle">independent of P, C, cap</text>
<path d="M190,88 L360,130" fill="none" stroke="#555" stroke-width="2" marker-end="url(#a)"/>
<text x="281.0" y="103.0" font-size="11" fill="#ffffff" stroke="#ffffff" stroke-width="3" paint-order="stroke" text-anchor="middle">push()</text>
<text x="281.0" y="103.0" font-size="11" fill="#555" text-anchor="middle">push()</text>
<path d="M190,144 L360,150" fill="none" stroke="#555" stroke-width="2" marker-end="url(#a)"/>
<path d="M190,200 L360,176" fill="none" stroke="#555" stroke-width="2" marker-end="url(#a)"/>
<path d="M590,130 L780,88" fill="none" stroke="#555" stroke-width="2" marker-end="url(#a)"/>
<text x="691.0" y="103.0" font-size="11" fill="#ffffff" stroke="#ffffff" stroke-width="3" paint-order="stroke" text-anchor="middle">pop()</text>
<text x="691.0" y="103.0" font-size="11" fill="#555" text-anchor="middle">pop()</text>
<path d="M590,150 L780,144" fill="none" stroke="#555" stroke-width="2" marker-end="url(#a)"/>
<path d="M590,176 L780,200" fill="none" stroke="#555" stroke-width="2" marker-end="url(#a)"/>
<path d="M865,224 L780,318" fill="none" stroke="#b8650a" stroke-width="2" stroke-dasharray="5 4" marker-end="url(#am)"/>
<text x="862.5" y="267.0" font-size="11" fill="#ffffff" stroke="#ffffff" stroke-width="3" paint-order="stroke" text-anchor="middle">XOR-combine after join</text>
<text x="862.5" y="267.0" font-size="11" fill="#b8650a" text-anchor="middle">XOR-combine after join</text>
<text x="40" y="262" font-size="11" fill="#555555" text-anchor="start">one mutex serializes every push/pop; XOR is commutative, so drain order cannot change the result.</text>
</svg>