<svg xmlns="http://www.w3.org/2000/svg" viewBox="0 0 900 366" font-family="'Red Hat Text', system-ui, sans-serif" role="img">
<defs><marker id="a" viewBox="0 0 10 10" refX="8.5" refY="5" markerWidth="9" markerHeight="9" orient="auto-start-reverse"><path d="M0,0 L10,5 L0,10 z" fill="#555"/></marker><marker id="am" viewBox="0 0 10 10" refX="8.5" refY="5" markerWidth="9" markerHeight="9" orient="auto-start-reverse"><path d="M0,0 L10,5 L0,10 z" fill="#b8650a"/></marker></defs>
<rect x="20" y="44" width="860" height="168" rx="12" fill="#eef4fb" stroke="#ddd"/>
<text x="32" y="64" font-size="12" font-weight="700" fill="#1d1d1d">Two threads, two owned counters — no lock</text>
<rect x="20" y="232" width="860" height="118" rx="12" fill="#f4f4f4" stroke="#ddd"/>
<text x="32" y="252" font-size="12" font-weight="700" fill="#1d1d1d">Shared ring buf[K] — slot for logical position p is buf[p % K]</text>
<rect x="40" y="92" width="228" height="96" rx="9" fill="#eef4fb" stroke="#2f6db5" stroke-width="2"/>
<text x="154.0" y="123.0" font-size="13.5" font-weight="700" fill="#111111" text-anchor="middle">Producer (core 0)</text>
<text x="154.0" y="140.0" font-size="11.5" fill="#555555" text-anchor="middle">owns tail, reads head</text>
<text x="154.0" y="155.0" font-size="11.5" fill="#555555" text-anchor="middle">buf[t%K] = v</text>
<text x="154.0" y="170.0" font-size="11.5" fill="#555555" text-anchor="middle">tail.store(t+1, Release)</text>
<rect x="632" y="92" width="228" height="96" rx="9" fill="#eef4fb" stroke="#2f6db5" stroke-width="2"/>
<text x="746.0" y="123.0" font-size="13.5" font-weight="700" fill="#111111" text-anchor="middle">Consumer (core 2)</text>
<text x="746.0" y="140.0" font-size="11.5" fill="#555555" text-anchor="middle">owns head, reads tail</text>
<text x="746.0" y="155.0" font-size="11.5" fill="#555555" text-anchor="middle">v = buf[h%K]</text>
<text x="746.0" y="170.0" font-size="11.5" fill="#555555" text-anchor="middle">head.store(h+1, Release)</text>
<rect x="352" y="78" width="90" height="48" rx="9" fill="#fff8ef" stroke="#e8870c" stroke-width="2"/>
<text x="397.0" y="100.0" font-size="13.5" font-weight="700" fill="#111111" text-anchor="middle">tail</text>
<text x="397.0" y="117.0" font-size="11.5" fill="#555555" text-anchor="middle">one writer</text>
<rect x="452" y="78" width="90" height="48" rx="9" fill="#fff8ef" stroke="#e8870c" stroke-width="2"/>
<text x="497.0" y="100.0" font-size="13.5" font-weight="700" fill="#111111" text-anchor="middle">head</text>
<text x="497.0" y="117.0" font-size="11.5" fill="#555555" text-anchor="middle">one writer</text>
<rect x="90" y="268" width="118" height="54" rx="9" fill="#111111" stroke="#111111" stroke-width="2"/>
<text x="149.0" y="293.0" font-size="13.5" font-weight="700" fill="#ffffff" text-anchor="middle">buf[0]</text>
<text x="149.0" y="310.0" font-size="11.5" fill="#dddddd" text-anchor="middle">3</text>
<rect x="214" y="268" width="118" height="54" rx="9" fill="#111111" stroke="#111111" stroke-width="2"/>
<text x="273.0" y="293.0" font-size="13.5" font-weight="700" fill="#ffffff" text-anchor="middle">buf[1]</text>
<text x="273.0" y="310.0" font-size="11.5" fill="#dddddd" text-anchor="middle">4</text>
<rect x="338" y="268" width="118" height="54" rx="9" fill="#ffffff" stroke="#111111" stroke-width="2"/>
<text x="397.0" y="293.0" font-size="13.5" font-weight="700" fill="#111111" text-anchor="middle">buf[2]</text>
<text x="397.0" y="310.0" font-size="11.5" fill="#555555" text-anchor="middle">free</text>
<rect x="462" y="268" width="118" height="54" rx="9" fill="#ffffff" stroke="#111111" stroke-width="2"/>
<text x="521.0" y="293.0" font-size="13.5" font-weight="700" fill="#111111" text-anchor="middle">buf[3]</text>
<text x="521.0" y="310.0" font-size="11.5" fill="#555555" text-anchor="middle">free</text>
<rect x="586" y="268" width="118" height="54" rx="9" fill="#ffffff" stroke="#111111" stroke-width="2"/>
<text x="645.0" y="293.0" font-size="13.5" font-weight="700" fill="#111111" text-anchor="middle">buf[4]</text>
<text x="645.0" y="310.0" font-size="11.5" fill="#555555" text-anchor="middle">free</text>
<rect x="710" y="268" width="118" height="54" rx="9" fill="#ffffff" stroke="#111111" stroke-width="2"/>
<text x="769.0" y="293.0" font-size="13.5" font-weight="700" fill="#111111" text-anchor="middle">buf[5]</text>
<text x="769.0" y="310.0" font-size="11.5" fill="#555555" text-anchor="middle">free</text>
<path d="M268,108 L352,96" fill="none" stroke="#b8650a" stroke-width="2" marker-end="url(#am)"/>
<text x="316.0" y="94.0" font-size="11" fill="#ffffff" stroke="#ffffff" stroke-width="3" paint-order="stroke" text-anchor="middle">store Rel</text>
<text x="316.0" y="94.0" font-size="11" fill="#b8650a" text-anchor="middle">store Rel</text>
<path d="M632,108 L542,96" fill="none" stroke="#b8650a" stroke-width="2" marker-end="url(#am)"/>
<text x="593.0" y="94.0" font-size="11" fill="#ffffff" stroke="#ffffff" stroke-width="3" paint-order="stroke" text-anchor="middle">store Rel</text>
<text x="593.0" y="94.0" font-size="11" fill="#b8650a" text-anchor="middle">store Rel</text>
<path d="M452,116 L268,156" fill="none" stroke="#555" stroke-width="2" marker-end="url(#a)"/>
<text x="366.0" y="140.0" font-size="11" fill="#ffffff" stroke="#ffffff" stroke-width="3" paint-order="stroke" text-anchor="middle">load Acq</text>
<text x="366.0" y="140.0" font-size="11" fill="#555" text-anchor="middle">load Acq</text>
<path d="M442,116 L632,156" fill="none" stroke="#555" stroke-width="2" marker-end="url(#a)"/>
<text x="543.0" y="140.0" font-size="11" fill="#ffffff" stroke="#ffffff" stroke-width="3" paint-order="stroke" text-anchor="middle">load Acq</text>
<text x="543.0" y="140.0" font-size="11" fill="#555" text-anchor="middle">load Acq</text>
<path d="M397,126 L150,268" fill="none" stroke="#b8650a" stroke-width="2" stroke-dasharray="5 4" marker-end="url(#am)"/>
<text x="333.5" y="193.0" font-size="11" fill="#ffffff" stroke="#ffffff" stroke-width="3" paint-order="stroke" text-anchor="middle">tail Release publishes buf[t%K]</text>
<text x="333.5" y="193.0" font-size="11" fill="#b8650a" text-anchor="middle">tail Release publishes buf[t%K]</text>
<text x="40" y="344" font-size="11" fill="#555555" text-anchor="start">occupancy = tail - head = 2   |   full when tail - head == K   |   empty when head == tail</text>
</svg>