<svg xmlns="http://www.w3.org/2000/svg" viewBox="0 0 980 640" font-family="'Red Hat Text', system-ui, sans-serif" role="img">
<defs><marker id="a" viewBox="0 0 10 10" refX="8.5" refY="5" markerWidth="9" markerHeight="9" orient="auto-start-reverse"><path d="M0,0 L10,5 L0,10 z" fill="#555"/></marker><marker id="am" viewBox="0 0 10 10" refX="8.5" refY="5" markerWidth="9" markerHeight="9" orient="auto-start-reverse"><path d="M0,0 L10,5 L0,10 z" fill="#b8650a"/></marker></defs>
<rect x="20" y="20" width="940" height="130" rx="12" fill="#eef4fb" stroke="#ddd"/>
<text x="32" y="40" font-size="12" font-weight="700" fill="#1d1d1d">/sys/fs/cgroup  (root — exempt from the &quot;no internal process&quot; rule)</text>
<rect x="20" y="170" width="940" height="260" rx="12" fill="#fff8ef" stroke="#ddd"/>
<text x="32" y="190" font-size="12" font-weight="700" fill="#1d1d1d">/sys/fs/cgroup/pmon-oomdemo  (leaf, created by setup_cgroup())</text>
<rect x="20" y="450" width="940" height="150" rx="12" fill="#f4f4f4" stroke="#ddd"/>
<text x="32" y="470" font-size="12" font-weight="700" fill="#1d1d1d">kernel — real dmesg from this session&#x27;s OOM run</text>
<rect x="50" y="60" width="420" height="60" rx="9" fill="#ffffff" stroke="#111111" stroke-width="2"/>
<text x="260.0" y="88.0" font-size="13.5" font-weight="700" fill="#111111" text-anchor="middle">cgroup.controllers</text>
<text x="260.0" y="105.0" font-size="11.5" fill="#555555" text-anchor="middle">cpuset cpu io memory hugetlb pids rdma misc dmem</text>
<rect x="500" y="60" width="420" height="60" rx="9" fill="#fff8ef" stroke="#e8870c" stroke-width="2"/>
<text x="710.0" y="88.0" font-size="13.5" font-weight="700" fill="#111111" text-anchor="middle">cgroup.subtree_control</text>
<text x="710.0" y="105.0" font-size="11.5" fill="#555555" text-anchor="middle">+memory +cpu  (delegated to children)</text>
<rect x="50" y="210" width="270" height="55" rx="9" fill="#fff8ef" stroke="#e8870c" stroke-width="2"/>
<text x="185.0" y="235.5" font-size="13.5" font-weight="700" fill="#111111" text-anchor="middle">memory.max</text>
<text x="185.0" y="252.5" font-size="11.5" fill="#555555" text-anchor="middle">67108864  (64 MiB)</text>
<rect x="340" y="210" width="270" height="55" rx="9" fill="#fff8ef" stroke="#e8870c" stroke-width="2"/>
<text x="475.0" y="235.5" font-size="13.5" font-weight="700" fill="#111111" text-anchor="middle">memory.swap.max</text>
<text x="475.0" y="252.5" font-size="11.5" fill="#555555" text-anchor="middle">0  (no swap headroom)</text>
<rect x="630" y="210" width="300" height="55" rx="9" fill="#ffffff" stroke="#111111" stroke-width="2"/>
<text x="780.0" y="235.5" font-size="13.5" font-weight="700" fill="#111111" text-anchor="middle">cpu.max</text>
<text x="780.0" y="252.5" font-size="11.5" fill="#555555" text-anchor="middle">&quot;max 100000&quot;  (unthrottled)</text>
<rect x="50" y="290" width="270" height="55" rx="9" fill="#ffffff" stroke="#111111" stroke-width="2"/>
<text x="185.0" y="315.5" font-size="13.5" font-weight="700" fill="#111111" text-anchor="middle">cgroup.procs</text>
<text x="185.0" y="332.5" font-size="11.5" fill="#555555" text-anchor="middle">pmon&#x27;s own pid, written before fork</text>
<rect x="340" y="290" width="590" height="55" rx="9" fill="#ffffff" stroke="#111111" stroke-width="2"/>
<text x="635.0" y="315.5" font-size="13.5" font-weight="700" fill="#111111" text-anchor="middle">memory.pressure (PSI)</text>
<text x="635.0" y="332.5" font-size="11.5" fill="#555555" text-anchor="middle">some avg10=0.00 avg60=0.00 avg300=0.00 total=0</text>
<rect x="50" y="365" width="880" height="45" rx="9" fill="#111111" stroke="#111111" stroke-width="2"/>
<text x="490.0" y="393.0" font-size="13.5" font-weight="700" fill="#ffffff" text-anchor="middle">hog (sh, real anon-rss 64384kB) writes past 64 MiB → allocation stalls, not merely slows</text>
<rect x="50" y="495" width="880" height="45" rx="9" fill="#ffffff" stroke="#111111" stroke-width="2"/>
<text x="490.0" y="523.0" font-size="13.5" font-weight="700" fill="#111111" text-anchor="middle">oom-kill: constraint=CONSTRAINT_MEMCG oom_memcg=/pmon-oomdemo task_memcg=/pmon-oomdemo task=sh pid=27013</text>
<rect x="50" y="550" width="880" height="45" rx="9" fill="#ffffff" stroke="#111111" stroke-width="2"/>
<text x="490.0" y="578.0" font-size="13.5" font-weight="700" fill="#111111" text-anchor="middle">Memory cgroup out of memory: Killed process 27013 (sh) anon-rss:64384kB  →  pmon reports: signal=9 (KILL), exit 137</text>
<path d="M470,90 L500,90" fill="none" stroke="#b8650a" stroke-width="2" marker-end="url(#am)"/>
<text x="491.0" y="84.0" font-size="11" fill="#ffffff" stroke="#ffffff" stroke-width="3" paint-order="stroke" text-anchor="middle">enables</text>
<text x="491.0" y="84.0" font-size="11" fill="#b8650a" text-anchor="middle">enables</text>
<path d="M265,130 L185,210" fill="none" stroke="#b8650a" stroke-width="2" marker-end="url(#am)"/>
<path d="M730,130 L780,210" fill="none" stroke="#555" stroke-width="2" marker-end="url(#a)"/>
<path d="M490,410 L490,450" fill="none" stroke="#b8650a" stroke-width="2" marker-end="url(#am)"/>
<text x="496.0" y="424.0" font-size="11" fill="#ffffff" stroke="#ffffff" stroke-width="3" paint-order="stroke" text-anchor="middle">OOM killer fires</text>
<text x="496.0" y="424.0" font-size="11" fill="#b8650a" text-anchor="middle">OOM killer fires</text>
<text x="30" y="615" font-size="12" fill="#555555" text-anchor="start">Every value above was read live from systems-target (kernel 6.19.10-300.fc44) during this session&#x27;s containerize --mem-max 67108864 run.</text>
</svg>