<svg xmlns="http://www.w3.org/2000/svg" viewBox="0 0 980 650" font-family="'Red Hat Text', system-ui, sans-serif" role="img">
<defs><marker id="a" viewBox="0 0 10 10" refX="8.5" refY="5" markerWidth="9" markerHeight="9" orient="auto-start-reverse"><path d="M0,0 L10,5 L0,10 z" fill="#555"/></marker><marker id="am" viewBox="0 0 10 10" refX="8.5" refY="5" markerWidth="9" markerHeight="9" orient="auto-start-reverse"><path d="M0,0 L10,5 L0,10 z" fill="#b8650a"/></marker></defs>
<rect x="20" y="20" width="460" height="560" rx="12" fill="#eef4fb" stroke="#ddd"/>
<text x="32" y="40" font-size="12" font-weight="700" fill="#1d1d1d">HOST — systems-target, pid 1 (systemd)</text>
<rect x="500" y="20" width="460" height="560" rx="12" fill="#fff8ef" stroke="#ddd"/>
<text x="512" y="40" font-size="12" font-weight="700" fill="#1d1d1d">pmon containerize child — new PID-1 task</text>
<rect x="40" y="50" width="420" height="62" rx="9" fill="#ffffff" stroke="#111111" stroke-width="2"/>
<text x="250.0" y="79.0" font-size="13.5" font-weight="700" fill="#111111" text-anchor="middle">PID</text>
<text x="250.0" y="96.0" font-size="11.5" fill="#555555" text-anchor="middle">pid:[4026531836]</text>
<rect x="520" y="50" width="420" height="62" rx="9" fill="#fff8ef" stroke="#e8870c" stroke-width="2"/>
<text x="730.0" y="79.0" font-size="13.5" font-weight="700" fill="#111111" text-anchor="middle">PID (unshared)</text>
<text x="730.0" y="96.0" font-size="11.5" fill="#555555" text-anchor="middle">pid:[4026532530]</text>
<rect x="40" y="130" width="420" height="62" rx="9" fill="#ffffff" stroke="#111111" stroke-width="2"/>
<text x="250.0" y="159.0" font-size="13.5" font-weight="700" fill="#111111" text-anchor="middle">Mount</text>
<text x="250.0" y="176.0" font-size="11.5" fill="#555555" text-anchor="middle">mnt:[4026531832]</text>
<rect x="520" y="130" width="420" height="62" rx="9" fill="#fff8ef" stroke="#e8870c" stroke-width="2"/>
<text x="730.0" y="159.0" font-size="13.5" font-weight="700" fill="#111111" text-anchor="middle">Mount (unshared)</text>
<text x="730.0" y="176.0" font-size="11.5" fill="#555555" text-anchor="middle">mnt:[4026532528]</text>
<rect x="40" y="210" width="420" height="62" rx="9" fill="#ffffff" stroke="#111111" stroke-width="2"/>
<text x="250.0" y="239.0" font-size="13.5" font-weight="700" fill="#111111" text-anchor="middle">UTS</text>
<text x="250.0" y="256.0" font-size="11.5" fill="#555555" text-anchor="middle">uts:[4026531838]</text>
<rect x="520" y="210" width="420" height="62" rx="9" fill="#fff8ef" stroke="#e8870c" stroke-width="2"/>
<text x="730.0" y="239.0" font-size="13.5" font-weight="700" fill="#111111" text-anchor="middle">UTS (unshared)</text>
<text x="730.0" y="256.0" font-size="11.5" fill="#555555" text-anchor="middle">uts:[4026532529]</text>
<rect x="40" y="290" width="420" height="62" rx="9" fill="#ffffff" stroke="#111111" stroke-width="2"/>
<text x="250.0" y="319.0" font-size="13.5" font-weight="700" fill="#111111" text-anchor="middle">Network</text>
<text x="250.0" y="336.0" font-size="11.5" fill="#555555" text-anchor="middle">net:[4026531833]</text>
<rect x="520" y="290" width="420" height="62" rx="9" fill="#fff8ef" stroke="#e8870c" stroke-width="2"/>
<text x="730.0" y="319.0" font-size="13.5" font-weight="700" fill="#111111" text-anchor="middle">Network (unshared)</text>
<text x="730.0" y="336.0" font-size="11.5" fill="#555555" text-anchor="middle">net:[4026532531]</text>
<rect x="40" y="370" width="420" height="62" rx="9" fill="#ffffff" stroke="#111111" stroke-width="2"/>
<text x="250.0" y="399.0" font-size="13.5" font-weight="700" fill="#111111" text-anchor="middle">Time</text>
<text x="250.0" y="416.0" font-size="11.5" fill="#555555" text-anchor="middle">time:[4026531834]</text>
<rect x="520" y="370" width="420" height="62" rx="9" fill="#ffffff" stroke="#999999" stroke-width="1.5" stroke-dasharray="6 4"/>
<text x="730.0" y="399.0" font-size="13.5" font-weight="700" fill="#111111" text-anchor="middle">Time (shared with host)</text>
<text x="730.0" y="416.0" font-size="11.5" fill="#555555" text-anchor="middle">time:[4026531834]</text>
<rect x="40" y="450" width="420" height="62" rx="9" fill="#ffffff" stroke="#111111" stroke-width="2"/>
<text x="250.0" y="479.0" font-size="13.5" font-weight="700" fill="#111111" text-anchor="middle">IPC</text>
<text x="250.0" y="496.0" font-size="11.5" fill="#555555" text-anchor="middle">ipc:[4026531839]</text>
<rect x="520" y="450" width="420" height="62" rx="9" fill="#ffffff" stroke="#999999" stroke-width="1.5" stroke-dasharray="6 4"/>
<text x="730.0" y="479.0" font-size="13.5" font-weight="700" fill="#111111" text-anchor="middle">IPC (shared with host)</text>
<text x="730.0" y="496.0" font-size="11.5" fill="#555555" text-anchor="middle">ipc:[4026531839]</text>
<rect x="40" y="530" width="420" height="62" rx="9" fill="#ffffff" stroke="#111111" stroke-width="2"/>
<text x="250.0" y="559.0" font-size="13.5" font-weight="700" fill="#111111" text-anchor="middle">User / Cgroup</text>
<text x="250.0" y="576.0" font-size="11.5" fill="#555555" text-anchor="middle">user/cgroup:[4026531837/4026531835]</text>
<rect x="520" y="530" width="420" height="62" rx="9" fill="#ffffff" stroke="#999999" stroke-width="1.5" stroke-dasharray="6 4"/>
<text x="730.0" y="559.0" font-size="13.5" font-weight="700" fill="#111111" text-anchor="middle">User / Cgroup (shared with host)</text>
<text x="730.0" y="576.0" font-size="11.5" fill="#555555" text-anchor="middle">user/cgroup:[4026531837/4026531835]</text>
<path d="M460,81 L520,81" fill="none" stroke="#b8650a" stroke-width="2" marker-end="url(#am)"/>
<text x="496.0" y="75.0" font-size="11" fill="#ffffff" stroke="#ffffff" stroke-width="3" paint-order="stroke" text-anchor="middle">differs</text>
<text x="496.0" y="75.0" font-size="11" fill="#b8650a" text-anchor="middle">differs</text>
<path d="M460,161 L520,161" fill="none" stroke="#b8650a" stroke-width="2" marker-end="url(#am)"/>
<text x="496.0" y="155.0" font-size="11" fill="#ffffff" stroke="#ffffff" stroke-width="3" paint-order="stroke" text-anchor="middle">differs</text>
<text x="496.0" y="155.0" font-size="11" fill="#b8650a" text-anchor="middle">differs</text>
<path d="M460,241 L520,241" fill="none" stroke="#b8650a" stroke-width="2" marker-end="url(#am)"/>
<text x="496.0" y="235.0" font-size="11" fill="#ffffff" stroke="#ffffff" stroke-width="3" paint-order="stroke" text-anchor="middle">differs</text>
<text x="496.0" y="235.0" font-size="11" fill="#b8650a" text-anchor="middle">differs</text>
<path d="M460,321 L520,321" fill="none" stroke="#b8650a" stroke-width="2" marker-end="url(#am)"/>
<text x="496.0" y="315.0" font-size="11" fill="#ffffff" stroke="#ffffff" stroke-width="3" paint-order="stroke" text-anchor="middle">differs</text>
<text x="496.0" y="315.0" font-size="11" fill="#b8650a" text-anchor="middle">differs</text>
<path d="M460,401 L520,401" fill="none" stroke="#555" stroke-width="2" stroke-dasharray="5 4" marker-end="url(#a)"/>
<text x="496.0" y="395.0" font-size="11" fill="#ffffff" stroke="#ffffff" stroke-width="3" paint-order="stroke" text-anchor="middle">same inode</text>
<text x="496.0" y="395.0" font-size="11" fill="#555" text-anchor="middle">same inode</text>
<path d="M460,481 L520,481" fill="none" stroke="#555" stroke-width="2" stroke-dasharray="5 4" marker-end="url(#a)"/>
<text x="496.0" y="475.0" font-size="11" fill="#ffffff" stroke="#ffffff" stroke-width="3" paint-order="stroke" text-anchor="middle">same inode</text>
<text x="496.0" y="475.0" font-size="11" fill="#555" text-anchor="middle">same inode</text>
<path d="M460,561 L520,561" fill="none" stroke="#555" stroke-width="2" stroke-dasharray="5 4" marker-end="url(#a)"/>
<text x="496.0" y="555.0" font-size="11" fill="#ffffff" stroke="#ffffff" stroke-width="3" paint-order="stroke" text-anchor="middle">same inode</text>
<text x="496.0" y="555.0" font-size="11" fill="#555" text-anchor="middle">same inode</text>
<text x="30" y="605" font-size="12" fill="#555555" text-anchor="start">pmon containerize requests CLONE_NEWNS|CLONE_NEWUTS|CLONE_NEWNET|CLONE_NEWPID only — amber boxes are namespaces it actually unshares; grey/dashed</text>
<text x="30" y="622" font-size="12" fill="#555555" text-anchor="start">boxes are namespaces it deliberately leaves alone (time, IPC, user, cgroup) — every id above is a real readlink /proc/&lt;pid&gt;/ns/* on systems-target.</text>
</svg>