<svg xmlns="http://www.w3.org/2000/svg" viewBox="0 0 900 400" font-family="'Red Hat Text', system-ui, sans-serif" role="img">
<defs><marker id="a" viewBox="0 0 10 10" refX="8.5" refY="5" markerWidth="9" markerHeight="9" orient="auto-start-reverse"><path d="M0,0 L10,5 L0,10 z" fill="#555"/></marker><marker id="am" viewBox="0 0 10 10" refX="8.5" refY="5" markerWidth="9" markerHeight="9" orient="auto-start-reverse"><path d="M0,0 L10,5 L0,10 z" fill="#b8650a"/></marker></defs>
<rect x="20" y="30" width="860" height="150" rx="12" fill="#fafafa" stroke="#ddd"/>
<text x="32" y="50" font-size="12" font-weight="700" fill="#1d1d1d">closed loop: benchlab&#x27;s raw timer (recorded samples only)</text>
<rect x="20" y="210" width="860" height="150" rx="12" fill="#fff8ef" stroke="#ddd"/>
<text x="32" y="230" font-size="12" font-weight="700" fill="#1d1d1d">what a fixed-rate caller would have seen (corrected)</text>
<rect x="40" y="70" width="90" height="46" rx="9" fill="#ffffff" stroke="#111111" stroke-width="2"/>
<text x="85.0" y="91.0" font-size="13.5" font-weight="700" fill="#111111" text-anchor="middle">iter 1</text>
<text x="85.0" y="108.0" font-size="11.5" fill="#555555" text-anchor="middle">44 ns</text>
<rect x="150" y="70" width="90" height="46" rx="9" fill="#ffffff" stroke="#111111" stroke-width="2"/>
<text x="195.0" y="91.0" font-size="13.5" font-weight="700" fill="#111111" text-anchor="middle">iter 2</text>
<text x="195.0" y="108.0" font-size="11.5" fill="#555555" text-anchor="middle">41 ns</text>
<rect x="260" y="70" width="90" height="46" rx="9" fill="#ffffff" stroke="#111111" stroke-width="2"/>
<text x="305.0" y="91.0" font-size="13.5" font-weight="700" fill="#111111" text-anchor="middle">iter 3</text>
<text x="305.0" y="108.0" font-size="11.5" fill="#555555" text-anchor="middle">39 ns</text>
<rect x="380" y="60" width="160" height="66" rx="9" fill="#fff8ef" stroke="#e8870c" stroke-width="2"/>
<text x="460.0" y="83.5" font-size="13.5" font-weight="700" fill="#111111" text-anchor="middle">iter 4 (STALL)</text>
<text x="460.0" y="100.5" font-size="11.5" fill="#555555" text-anchor="middle">page fault / sched</text>
<text x="460.0" y="115.5" font-size="11.5" fill="#555555" text-anchor="middle">1057 ns, one sample</text>
<rect x="40" y="250" width="90" height="46" rx="9" fill="#ffffff" stroke="#111111" stroke-width="2"/>
<text x="85.0" y="271.0" font-size="13.5" font-weight="700" fill="#111111" text-anchor="middle">req 1</text>
<text x="85.0" y="288.0" font-size="11.5" fill="#555555" text-anchor="middle">44 ns</text>
<rect x="150" y="250" width="90" height="46" rx="9" fill="#ffffff" stroke="#111111" stroke-width="2"/>
<text x="195.0" y="271.0" font-size="13.5" font-weight="700" fill="#111111" text-anchor="middle">req 2</text>
<text x="195.0" y="288.0" font-size="11.5" fill="#555555" text-anchor="middle">41 ns</text>
<rect x="260" y="250" width="90" height="46" rx="9" fill="#ffffff" stroke="#111111" stroke-width="2"/>
<text x="305.0" y="271.0" font-size="13.5" font-weight="700" fill="#111111" text-anchor="middle">req 3</text>
<text x="305.0" y="288.0" font-size="11.5" fill="#555555" text-anchor="middle">39 ns</text>
<rect x="380" y="240" width="110" height="66" rx="9" fill="#fff8ef" stroke="#e8870c" stroke-width="2"/>
<text x="435.0" y="271.0" font-size="13.5" font-weight="700" fill="#111111" text-anchor="middle">req 4 stalls</text>
<text x="435.0" y="288.0" font-size="11.5" fill="#555555" text-anchor="middle">1057 ns</text>
<rect x="500" y="240" width="100" height="66" rx="9" fill="#ffffff" stroke="#999999" stroke-width="1.5" stroke-dasharray="6 4"/>
<text x="550.0" y="263.5" font-size="13.5" font-weight="700" fill="#111111" text-anchor="middle">req 5 queued</text>
<text x="550.0" y="280.5" font-size="11.5" fill="#555555" text-anchor="middle">~1018 ns</text>
<text x="550.0" y="295.5" font-size="11.5" fill="#555555" text-anchor="middle">(synthetic)</text>
<rect x="610" y="240" width="100" height="66" rx="9" fill="#ffffff" stroke="#999999" stroke-width="1.5" stroke-dasharray="6 4"/>
<text x="660.0" y="263.5" font-size="13.5" font-weight="700" fill="#111111" text-anchor="middle">req 6 queued</text>
<text x="660.0" y="280.5" font-size="11.5" fill="#555555" text-anchor="middle">~979 ns</text>
<text x="660.0" y="295.5" font-size="11.5" fill="#555555" text-anchor="middle">(synthetic)</text>
<rect x="720" y="240" width="120" height="66" rx="9" fill="#ffffff" stroke="#999999" stroke-width="1.5" stroke-dasharray="6 4"/>
<text x="780.0" y="263.5" font-size="13.5" font-weight="700" fill="#111111" text-anchor="middle">... down to</text>
<text x="780.0" y="280.5" font-size="11.5" fill="#555555" text-anchor="middle">expected_interval</text>
<text x="780.0" y="295.5" font-size="11.5" fill="#555555" text-anchor="middle">(43 ns floor)</text>
<path d="M130,93 L150,93" fill="none" stroke="#555" stroke-width="2" marker-end="url(#a)"/>
<path d="M240,93 L260,93" fill="none" stroke="#555" stroke-width="2" marker-end="url(#a)"/>
<path d="M350,93 L380,93" fill="none" stroke="#555" stroke-width="2" marker-end="url(#a)"/>
<path d="M130,273 L150,273" fill="none" stroke="#555" stroke-width="2" marker-end="url(#a)"/>
<path d="M240,273 L260,273" fill="none" stroke="#555" stroke-width="2" marker-end="url(#a)"/>
<path d="M370,273 L380,273" fill="none" stroke="#555" stroke-width="2" marker-end="url(#a)"/>
<path d="M490,273 L500,273" fill="none" stroke="#b8650a" stroke-width="2" marker-end="url(#am)"/>
<text x="501.0" y="267.0" font-size="11" fill="#ffffff" stroke="#ffffff" stroke-width="3" paint-order="stroke" text-anchor="middle">backfilled</text>
<text x="501.0" y="267.0" font-size="11" fill="#b8650a" text-anchor="middle">backfilled</text>
<path d="M600,273 L610,273" fill="none" stroke="#b8650a" stroke-width="2" marker-end="url(#am)"/>
<path d="M460,126 L460,240" fill="none" stroke="#555" stroke-width="2" stroke-dasharray="5 4" marker-end="url(#a)"/>
<text x="466.0" y="177.0" font-size="11" fill="#ffffff" stroke="#ffffff" stroke-width="3" paint-order="stroke" text-anchor="middle">same stall</text>
<text x="466.0" y="177.0" font-size="11" fill="#555" text-anchor="middle">same stall</text>
<text x="450" y="195" font-size="11" fill="#1d1d1d" text-anchor="middle">raw p99 (1000-sample window): only 1 of the 1000 samples is the stall — buried, not the tail</text>
<text x="450" y="385" font-size="11" fill="#b8650a" text-anchor="middle">co_p99 backfills the requests that would have queued behind the stall — co_n grows, co_p99_ns ≥ p99_ns always</text>
</svg>