<svg xmlns="http://www.w3.org/2000/svg" viewBox="0 0 900 440" font-family="'Red Hat Text', system-ui, sans-serif" role="img">
<defs><marker id="a" viewBox="0 0 10 10" refX="8.5" refY="5" markerWidth="9" markerHeight="9" orient="auto-start-reverse"><path d="M0,0 L10,5 L0,10 z" fill="#555"/></marker><marker id="am" viewBox="0 0 10 10" refX="8.5" refY="5" markerWidth="9" markerHeight="9" orient="auto-start-reverse"><path d="M0,0 L10,5 L0,10 z" fill="#b8650a"/></marker></defs>
<rect x="20" y="36" width="860" height="176" rx="12" fill="#fafafa" stroke="#ddd"/>
<text x="32" y="56" font-size="12" font-weight="700" fill="#1d1d1d">naive — blocking read, migratable</text>
<rect x="20" y="236" width="860" height="182" rx="12" fill="#fff8ef" stroke="#ddd"/>
<text x="32" y="256" font-size="12" font-weight="700" fill="#1d1d1d">fastpath — busy-poll, pinned core</text>
<rect x="40" y="100" width="120" height="56" rx="9" fill="#eef4fb" stroke="#2f6db5" stroke-width="2"/>
<text x="100.0" y="126.0" font-size="13.5" font-weight="700" fill="#111111" text-anchor="middle">client</text>
<text x="100.0" y="143.0" font-size="11.5" fill="#555555" text-anchor="middle">sends 64B</text>
<rect x="210" y="100" width="170" height="56" rx="9" fill="#ffffff" stroke="#111111" stroke-width="2"/>
<text x="295.0" y="126.0" font-size="13.5" font-weight="700" fill="#111111" text-anchor="middle">read(2) — blocks</text>
<text x="295.0" y="143.0" font-size="11.5" fill="#555555" text-anchor="middle">fresh heap buf / msg</text>
<rect x="440" y="100" width="160" height="56" rx="9" fill="#f4f4f4" stroke="#888888" stroke-width="1.5"/>
<text x="520.0" y="126.0" font-size="13.5" font-weight="700" fill="#111111" text-anchor="middle">kernel scheduler</text>
<text x="520.0" y="143.0" font-size="11.5" fill="#555555" text-anchor="middle">sleep → wake</text>
<rect x="680" y="100" width="150" height="56" rx="9" fill="#ffffff" stroke="#111111" stroke-width="2"/>
<text x="755.0" y="126.0" font-size="13.5" font-weight="700" fill="#111111" text-anchor="middle">write(2)</text>
<text x="755.0" y="143.0" font-size="11.5" fill="#555555" text-anchor="middle">echo 64B</text>
<rect x="40" y="300" width="120" height="56" rx="9" fill="#eef4fb" stroke="#2f6db5" stroke-width="2"/>
<text x="100.0" y="326.0" font-size="13.5" font-weight="700" fill="#111111" text-anchor="middle">client</text>
<text x="100.0" y="343.0" font-size="11.5" fill="#555555" text-anchor="middle">sends 64B</text>
<rect x="210" y="294" width="210" height="68" rx="9" fill="#fff8ef" stroke="#e8870c" stroke-width="2"/>
<text x="315.0" y="318.5" font-size="13.5" font-weight="700" fill="#111111" text-anchor="middle">busy-poll recv(2)</text>
<text x="315.0" y="335.5" font-size="11.5" fill="#555555" text-anchor="middle">spin on EAGAIN, one reused buf</text>
<text x="315.0" y="350.5" font-size="11.5" fill="#555555" text-anchor="middle">pinned: CPU 1</text>
<rect x="470" y="250" width="170" height="40" rx="9" fill="#ffffff" stroke="#999999" stroke-width="1.5" stroke-dasharray="6 4"/>
<text x="555.0" y="275.5" font-size="13.5" font-weight="700" fill="#111111" text-anchor="middle">scheduler — never entered</text>
<rect x="680" y="300" width="150" height="56" rx="9" fill="#ffffff" stroke="#111111" stroke-width="2"/>
<text x="755.0" y="326.0" font-size="13.5" font-weight="700" fill="#111111" text-anchor="middle">write(2)</text>
<text x="755.0" y="343.0" font-size="11.5" fill="#555555" text-anchor="middle">echo 64B</text>
<path d="M160,128 L210,128" fill="none" stroke="#555" stroke-width="2" marker-end="url(#a)"/>
<text x="191.0" y="122.0" font-size="11" fill="#ffffff" stroke="#ffffff" stroke-width="3" paint-order="stroke" text-anchor="middle">frame</text>
<text x="191.0" y="122.0" font-size="11" fill="#555" text-anchor="middle">frame</text>
<path d="M380,128 L440,128" fill="none" stroke="#b8650a" stroke-width="2" marker-start="url(#am)" marker-end="url(#am)"/>
<text x="416.0" y="122.0" font-size="11" fill="#ffffff" stroke="#ffffff" stroke-width="3" paint-order="stroke" text-anchor="middle">sleep/wake</text>
<text x="416.0" y="122.0" font-size="11" fill="#b8650a" text-anchor="middle">sleep/wake</text>
<path d="M600,128 L680,128" fill="none" stroke="#555" stroke-width="2" marker-end="url(#a)"/>
<text x="646.0" y="122.0" font-size="11" fill="#ffffff" stroke="#ffffff" stroke-width="3" paint-order="stroke" text-anchor="middle">data ready</text>
<text x="646.0" y="122.0" font-size="11" fill="#555" text-anchor="middle">data ready</text>
<path d="M755,192 L100,192" fill="none" stroke="#555" stroke-width="2" stroke-dasharray="5 4" marker-end="url(#a)"/>
<text x="433.5" y="184.0" font-size="11" fill="#ffffff" stroke="#ffffff" stroke-width="3" paint-order="stroke" text-anchor="middle">echo 64B</text>
<text x="433.5" y="184.0" font-size="11" fill="#555" text-anchor="middle">echo 64B</text>
<path d="M160,328 L210,328" fill="none" stroke="#555" stroke-width="2" marker-end="url(#a)"/>
<text x="191.0" y="322.0" font-size="11" fill="#ffffff" stroke="#ffffff" stroke-width="3" paint-order="stroke" text-anchor="middle">frame</text>
<text x="191.0" y="322.0" font-size="11" fill="#555" text-anchor="middle">frame</text>
<path d="M420,324 L680,328" fill="none" stroke="#b8650a" stroke-width="2" marker-end="url(#am)"/>
<text x="556.0" y="320.0" font-size="11" fill="#ffffff" stroke="#ffffff" stroke-width="3" paint-order="stroke" text-anchor="middle">stays on-CPU</text>
<text x="556.0" y="320.0" font-size="11" fill="#b8650a" text-anchor="middle">stays on-CPU</text>
<path d="M360,294 L520,290" fill="none" stroke="#555" stroke-width="2" stroke-dasharray="5 4" marker-end="url(#a)"/>
<text x="446.0" y="286.0" font-size="11" fill="#ffffff" stroke="#ffffff" stroke-width="3" paint-order="stroke" text-anchor="middle">never</text>
<text x="446.0" y="286.0" font-size="11" fill="#555" text-anchor="middle">never</text>
<path d="M755,392 L100,392" fill="none" stroke="#555" stroke-width="2" stroke-dasharray="5 4" marker-end="url(#a)"/>
<text x="433.5" y="384.0" font-size="11" fill="#ffffff" stroke="#ffffff" stroke-width="3" paint-order="stroke" text-anchor="middle">echo 64B</text>
<text x="433.5" y="384.0" font-size="11" fill="#555" text-anchor="middle">echo 64B</text>
<text x="862" y="56" font-size="11" fill="#1d1d1d" text-anchor="end" font-weight="700">voluntary_ctxt_switches ≈ 1 / msg</text>
<text x="862" y="256" font-size="11" fill="#1d1d1d" text-anchor="end" font-weight="700">voluntary_ctxt_switches ≈ 0</text>
<text x="450" y="226" font-size="12" fill="#666" text-anchor="middle">same 64-byte frame, same round trip — the difference is who the thread asks for its CPU back</text>
</svg>