<svg xmlns="http://www.w3.org/2000/svg" viewBox="0 0 900 320" font-family="'Red Hat Text', system-ui, sans-serif" role="img">
<defs><marker id="a" viewBox="0 0 10 10" refX="8.5" refY="5" markerWidth="9" markerHeight="9" orient="auto-start-reverse"><path d="M0,0 L10,5 L0,10 z" fill="#555"/></marker><marker id="am" viewBox="0 0 10 10" refX="8.5" refY="5" markerWidth="9" markerHeight="9" orient="auto-start-reverse"><path d="M0,0 L10,5 L0,10 z" fill="#b8650a"/></marker></defs>
<rect x="20" y="44" width="860" height="218" rx="12" fill="#fafafa" stroke="#ddd"/>
<text x="32" y="64" font-size="12" font-weight="700" fill="#1d1d1d">pmon — one child&#x27;s supervise loop</text>
<rect x="36" y="96" width="112" height="58" rx="9" fill="#fff8ef" stroke="#e8870c" stroke-width="2"/>
<text x="92.0" y="123.0" font-size="13.5" font-weight="700" fill="#111111" text-anchor="middle">pmon</text>
<text x="92.0" y="140.0" font-size="11.5" fill="#555555" text-anchor="middle">per child</text>
<rect x="186" y="98" width="118" height="52" rx="9" fill="#ffffff" stroke="#111111" stroke-width="2"/>
<text x="245.0" y="129.5" font-size="13.5" font-weight="700" fill="#111111" text-anchor="middle">starting</text>
<rect x="342" y="98" width="118" height="52" rx="9" fill="#fff8ef" stroke="#e8870c" stroke-width="2"/>
<text x="401.0" y="129.5" font-size="13.5" font-weight="700" fill="#111111" text-anchor="middle">up</text>
<rect x="498" y="98" width="132" height="52" rx="9" fill="#ffffff" stroke="#111111" stroke-width="2"/>
<text x="564.0" y="129.5" font-size="13.5" font-weight="700" fill="#111111" text-anchor="middle">wait on child</text>
<rect x="498" y="194" width="132" height="52" rx="9" fill="#ffffff" stroke="#111111" stroke-width="2"/>
<text x="564.0" y="218.0" font-size="13.5" font-weight="700" fill="#111111" text-anchor="middle">restarting</text>
<text x="564.0" y="235.0" font-size="11.5" fill="#555555" text-anchor="middle">+300ms · attempt++</text>
<rect x="700" y="98" width="150" height="52" rx="9" fill="#111111" stroke="#111111" stroke-width="2"/>
<text x="775.0" y="122.0" font-size="13.5" font-weight="700" fill="#ffffff" text-anchor="middle">down</text>
<text x="775.0" y="139.0" font-size="11.5" fill="#dddddd" text-anchor="middle">SIGTERM → forwarded</text>
<path d="M148,125 L186,125" fill="none" stroke="#555" stroke-width="2" marker-end="url(#a)"/>
<text x="173.0" y="119.0" font-size="11" fill="#ffffff" stroke="#ffffff" stroke-width="3" paint-order="stroke" text-anchor="middle">fork+exec</text>
<text x="173.0" y="119.0" font-size="11" fill="#555" text-anchor="middle">fork+exec</text>
<path d="M304,124 L342,124" fill="none" stroke="#555" stroke-width="2" marker-end="url(#a)"/>
<text x="329.0" y="118.0" font-size="11" fill="#ffffff" stroke="#ffffff" stroke-width="3" paint-order="stroke" text-anchor="middle">started pid=P</text>
<text x="329.0" y="118.0" font-size="11" fill="#555" text-anchor="middle">started pid=P</text>
<path d="M460,124 L498,124" fill="none" stroke="#555" stroke-width="2" marker-end="url(#a)"/>
<path d="M564,150 L564,194" fill="none" stroke="#b8650a" stroke-width="2" marker-end="url(#am)"/>
<text x="570.0" y="166.0" font-size="11" fill="#ffffff" stroke="#ffffff" stroke-width="3" paint-order="stroke" text-anchor="middle">unexpected exit</text>
<text x="570.0" y="166.0" font-size="11" fill="#b8650a" text-anchor="middle">unexpected exit</text>
<path d="M498,220 L401,150" fill="none" stroke="#b8650a" stroke-width="2" marker-end="url(#am)"/>
<text x="455.5" y="179.0" font-size="11" fill="#ffffff" stroke="#ffffff" stroke-width="3" paint-order="stroke" text-anchor="middle">re-exec</text>
<text x="455.5" y="179.0" font-size="11" fill="#b8650a" text-anchor="middle">re-exec</text>
<path d="M630,124 L700,124" fill="none" stroke="#555" stroke-width="2" marker-end="url(#a)"/>
<text x="671.0" y="118.0" font-size="11" fill="#ffffff" stroke="#ffffff" stroke-width="3" paint-order="stroke" text-anchor="middle">shuttingDown</text>
<text x="671.0" y="118.0" font-size="11" fill="#555" text-anchor="middle">shuttingDown</text>
<text x="450" y="288" font-size="11" fill="#666" text-anchor="middle">a health tick prints each child&#x27;s state (starting|up|restarting|down) every --health-interval-ms; on SIGTERM/SIGINT pmon forwards the signal to all children, then prints pmon: shutdown</text>
</svg>