<svg xmlns="http://www.w3.org/2000/svg" viewBox="0 0 1200 520" font-family="'Red Hat Text', system-ui, sans-serif" role="img">
<defs><marker id="a" viewBox="0 0 10 10" refX="8.5" refY="5" markerWidth="9" markerHeight="9" orient="auto-start-reverse"><path d="M0,0 L10,5 L0,10 z" fill="#555"/></marker><marker id="am" viewBox="0 0 10 10" refX="8.5" refY="5" markerWidth="9" markerHeight="9" orient="auto-start-reverse"><path d="M0,0 L10,5 L0,10 z" fill="#b8650a"/></marker></defs>
<rect x="20" y="20" width="960" height="460" rx="12" fill="#fafafa" stroke="#ddd"/>
<text x="32" y="40" font-size="12" font-weight="700" fill="#1d1d1d">CMakePresets.json — configure presets (inherits _base)</text>
<rect x="1000" y="20" width="180" height="260" rx="12" fill="#fafafa" stroke="#ddd"/>
<text x="1012" y="40" font-size="12" font-weight="700" fill="#1d1d1d">Conan sub-target</text>
<rect x="380" y="70" width="220" height="60" rx="9" fill="#111111" stroke="#111111" stroke-width="2"/>
<text x="490.0" y="98.0" font-size="13.5" font-weight="700" fill="#ffffff" text-anchor="middle">_base</text>
<text x="490.0" y="115.0" font-size="11.5" fill="#dddddd" text-anchor="middle">common config preset</text>
<rect x="40" y="200" width="140" height="70" rx="9" fill="#ffffff" stroke="#111111" stroke-width="2"/>
<text x="110.0" y="233.0" font-size="13.5" font-weight="700" fill="#111111" text-anchor="middle">release</text>
<text x="110.0" y="250.0" font-size="11.5" fill="#555555" text-anchor="middle">build/release</text>
<rect x="192" y="200" width="140" height="70" rx="9" fill="#ffffff" stroke="#111111" stroke-width="2"/>
<text x="262.0" y="233.0" font-size="13.5" font-weight="700" fill="#111111" text-anchor="middle">debug</text>
<text x="262.0" y="250.0" font-size="11.5" fill="#555555" text-anchor="middle">build/debug</text>
<rect x="344" y="200" width="140" height="70" rx="9" fill="#ffffff" stroke="#111111" stroke-width="2"/>
<text x="414.0" y="233.0" font-size="13.5" font-weight="700" fill="#111111" text-anchor="middle">asan</text>
<text x="414.0" y="250.0" font-size="11.5" fill="#555555" text-anchor="middle">build/asan</text>
<rect x="496" y="200" width="140" height="70" rx="9" fill="#ffffff" stroke="#111111" stroke-width="2"/>
<text x="566.0" y="233.0" font-size="13.5" font-weight="700" fill="#111111" text-anchor="middle">ubsan</text>
<text x="566.0" y="250.0" font-size="11.5" fill="#555555" text-anchor="middle">build/ubsan</text>
<rect x="648" y="200" width="140" height="70" rx="9" fill="#eef4fb" stroke="#2f6db5" stroke-width="2"/>
<text x="718.0" y="233.0" font-size="13.5" font-weight="700" fill="#111111" text-anchor="middle">release-clang</text>
<text x="718.0" y="250.0" font-size="11.5" fill="#555555" text-anchor="middle">build/release-clang</text>
<rect x="800" y="200" width="140" height="70" rx="9" fill="#eef4fb" stroke="#2f6db5" stroke-width="2"/>
<text x="870.0" y="233.0" font-size="13.5" font-weight="700" fill="#111111" text-anchor="middle">debug-clang</text>
<text x="870.0" y="250.0" font-size="11.5" fill="#555555" text-anchor="middle">build/debug-clang</text>
<rect x="1030" y="90" width="120" height="60" rx="9" fill="#ffffff" stroke="#999999" stroke-width="1.5" stroke-dasharray="6 4"/>
<text x="1090.0" y="118.0" font-size="13.5" font-weight="700" fill="#111111" text-anchor="middle">conan</text>
<text x="1090.0" y="135.0" font-size="11.5" fill="#555555" text-anchor="middle">build/conan</text>
<path d="M490,130 L110,200" fill="none" stroke="#555" stroke-width="2" marker-end="url(#a)"/>
<path d="M490,130 L262,200" fill="none" stroke="#555" stroke-width="2" marker-end="url(#a)"/>
<path d="M490,130 L414,200" fill="none" stroke="#555" stroke-width="2" marker-end="url(#a)"/>
<path d="M490,130 L566,200" fill="none" stroke="#555" stroke-width="2" marker-end="url(#a)"/>
<path d="M490,130 L718,200" fill="none" stroke="#555" stroke-width="2" marker-end="url(#a)"/>
<path d="M490,130 L870,200" fill="none" stroke="#555" stroke-width="2" marker-end="url(#a)"/>
<path d="M600,100 L1030,120" fill="none" stroke="#555" stroke-width="2" stroke-dasharray="5 4" marker-end="url(#a)"/>
<text x="821.0" y="104.0" font-size="11" fill="#ffffff" stroke="#ffffff" stroke-width="3" paint-order="stroke" text-anchor="middle">same file, no inherits</text>
<text x="821.0" y="104.0" font-size="11" fill="#555" text-anchor="middle">same file, no inherits</text>
<text x="110" y="286" font-size="11" fill="#1d1d1d" text-anchor="middle">verify: parity gate ①</text>
<text x="262" y="286" font-size="11" fill="#1d1d1d" text-anchor="middle">gdb: .gdbinit + printers</text>
<text x="414" y="286" font-size="11" fill="#1d1d1d" text-anchor="middle">cross-ref: ch29 matrix</text>
<text x="566" y="286" font-size="11" fill="#1d1d1d" text-anchor="middle">verify: UBSan gate</text>
<text x="718" y="286" font-size="11" fill="#1d1d1d" text-anchor="middle">verify: parity gate ①</text>
<text x="870" y="286" font-size="11" fill="#1d1d1d" text-anchor="middle">clang diagnostics (shown)</text>
<text x="40" y="440" font-size="12" fill="#1d1d1d" text-anchor="start">① release + release-clang both feed the byte-identical</text>
<text x="40" y="456" font-size="12" fill="#1d1d1d" text-anchor="start">parity gate (Fig 46.2) — GCC presets vs clang twins are color-coded above.</text>
<text x="1015" y="170" font-size="11" fill="#1d1d1d" text-anchor="start">isolated — no inherits</text>
<text x="1015" y="186" font-size="11" fill="#1d1d1d" text-anchor="start">keeps CI&#x27;s Conan-less</text>
<text x="1015" y="202" font-size="11" fill="#1d1d1d" text-anchor="start">build-smoke green</text>
</svg>